<?xml version="1.0" encoding="UTF-8"?>
<svg id="Layer_1" xmlns="http://www.w3.org/2000/svg" version="1.1" viewBox="0 0 1537.1 1550.59">
  <!-- Generator: Adobe Illustrator 29.3.1, SVG Export Plug-In . SVG Version: 2.1.0 Build 151)  -->
  <defs>
    <style>
      .st0 {
        fill: #fff;
      }
    </style>
  </defs>
  <path class="st0" d="M768.55-5.16C344.09-5.16,0,338.93,0,763.39s344.09,768.55,768.55,768.55,768.55-344.09,768.55-768.55S1193.01-5.16,768.55-5.16ZM768.55,1500.23c-406.94,0-736.84-329.89-736.84-736.84S361.61,26.55,768.55,26.55s736.84,329.89,736.84,736.84-329.89,736.84-736.84,736.84Z"/>
  <path class="st0" d="M676.76,999.39h-10.31v36.28h10.31c2.71,0,5.02-.96,6.92-2.89,1.9-1.93,2.85-4.25,2.85-6.97v-16.56c0-6.57-3.26-9.86-9.77-9.86Z"/>
  <path class="st0" d="M1078.69,625.95h-9.98v123.43h9.98c13.85,0,20.84-9.03,20.98-27.09v-69.66c0-17.79-7-26.68-20.98-26.68Z"/>
  <path class="st0" d="M768.55,263.36c-276.16,0-500.03,223.87-500.03,500.03s223.87,500.03,500.03,500.03,500.03-223.87,500.03-500.03-223.87-500.03-500.03-500.03ZM750.89,396.57l17.66-54.34,17.66,54.34h57.14l-46.23,33.59,17.66,54.34-46.23-33.59-46.23,33.59,17.66-54.34-46.23-33.59h57.14ZM591.9,430.53l12.2-37.55,12.2,37.55h39.48l-31.94,23.21,12.2,37.55-31.94-23.21-31.94,23.21,12.2-37.55-31.94-23.21h39.48ZM574.89,1020.74h-17.73v-13.3c0-2.71-.97-5.04-2.89-6.97-1.93-1.93-4.25-2.89-6.97-2.89s-5.02.97-6.92,2.89c-1.9,1.93-2.85,4.25-2.85,6.97v62.06c0,2.71.95,5.02,2.85,6.92,1.9,1.9,4.21,2.85,6.92,2.85s5.04-.95,6.97-2.85c1.93-1.9,2.89-4.21,2.89-6.92v-15.65h17.73v15.83c0,7.54-2.65,13.93-7.96,19.18-5.31,5.25-11.67,7.87-19.09,7.87s-13.95-2.64-19.23-7.92c-5.28-5.28-7.92-11.65-7.92-19.13v-61.88c0-7.54,2.65-13.95,7.96-19.23,5.31-5.28,11.7-7.92,19.18-7.92s13.93,2.65,19.18,7.96c5.25,5.31,7.87,11.7,7.87,19.18v12.94ZM574.99,700.29h-101.23v-62.53c0-13.04-5.3-19.62-15.89-19.76-4.75,0-8.52,1.77-11.3,5.3-2.78,3.53-4.18,8.35-4.18,14.46v205.51c0,13.04,5.57,19.62,16.7,19.76,5.02,0,9.06-1.9,12.12-5.7,3.06-3.8,4.58-8.76,4.58-14.87v-57.44h-15.07v-63.14h114.27v214.48h-80.45l-7.94-43.38h-5.09c-5.3,17.79-12.66,30.32-22.1,37.58-9.44,7.26-23.05,10.9-40.84,10.9-23.63-.27-42.4-9.03-56.32-26.27-13.92-17.24-20.88-42.98-20.88-77.2v-173.13c0-43.72,9.95-75.87,29.84-96.44,19.89-20.57,50.14-30.86,90.74-30.86,36.66,0,64.67,8.49,84.02,25.46,19.35,16.98,29.02,41.76,29.02,74.34v62.94ZM637.58,999.02h-31.58v30.94h23.07v17.19h-23.07v30.94h31.58v17.19h-48.67v-113.45h48.67v17.19ZM688.21,1095.29l-10.37-42.7h-11.4v42.7h-17.1v-113.36h26.96c9.53,0,16.52,2.62,20.99,7.87,3.92,4.58,5.88,10.98,5.88,19.18v16.47c0,8.02-3.05,14.81-9.14,20.36l12.67,49.49h-18.49ZM769.13,999.12h-18.09v96.17h-17.1v-96.17h-18.18v-17.19h53.38v17.19ZM799.98,1095.29h-17.1v-113.36h17.1v113.36ZM725.51,936.36l-26.27-250.73h-5.5l5.5,134.02v116.71h-96.34v-394.13h143.8l16.7,186.37,4.28,61.31h5.3l3.87-61.31,16.7-186.37h143.39v394.13h-96.34l.41-116.3,5.09-133.61h-5.5l-27.5,249.92h-87.58ZM863.94,999.02h-31.58v30.94h23.07v17.19h-23.07v48.13h-17.1v-113.45h48.67v17.19ZM892.8,1095.29h-17.1v-113.36h17.1v113.36ZM956.76,999.02h-31.58v30.94h23.07v17.19h-23.07v30.94h31.58v17.19h-48.67v-113.45h48.67v17.19ZM933,468.08l-31.94,23.21,12.2-37.55-31.94-23.21h39.48l12.2-37.55,12.2,37.55h39.48l-31.94,23.21,12.2,37.55-31.94-23.21ZM1022.26,1068.14c0,7.48-2.62,13.87-7.87,19.18-5.25,5.31-11.58,7.96-19,7.96h-26.87v-113.45h26.87c7.48,0,13.83,2.66,19.04,7.96,5.22,5.31,7.83,11.67,7.83,19.09v59.26ZM1176.05,571.16c18.06,19.28,27.09,45.9,27.09,79.84v67.62c0,33.95-9.34,61.61-28.01,83-18.67,21.39-43.69,32.08-75.06,32.08h-31.37v102.66h-100.42v-394.13h131.78c32.59,0,57.91,9.64,75.97,28.92Z"/>
  <path class="st0" d="M995.94,999.3h-10.31v79.07h10.31c2.71,0,5-.98,6.88-2.94,1.87-1.96,2.8-4.27,2.8-6.92v-59.35c0-2.71-.95-5.04-2.85-6.97-1.9-1.93-4.18-2.9-6.83-2.9Z"/>
  <path class="st0" d="M193.73,807.45c5-9.4,7.34-20.33,7.02-32.8-.25-9.81-2.35-19.45-6.3-28.92-3.95-9.47-8.43-16.67-13.44-21.58l-47.48,1.2,1.31,51.87,20.08-.51-.7-27.56,15.12-.38c2.91,3.56,5.42,7.85,7.52,12.87,2.11,5.02,3.22,10.05,3.35,15.09.26,10.19-3.07,18.52-9.98,24.98-6.91,6.47-17.44,9.88-31.59,10.24-13.12.33-23.09-2.52-29.91-8.56-6.82-6.04-10.37-14.31-10.63-24.83-.17-6.94,1.37-12.77,4.64-17.49,3.27-4.72,7.81-7.99,13.62-9.82l-5.08-23.79c-10.89,2.66-19.33,8.23-25.32,16.71-6,8.48-8.81,20.11-8.43,34.91.29,11.38,2.51,20.84,6.66,28.38,5.4,9.9,12.99,17.32,22.77,22.28,9.78,4.96,20.87,7.28,33.29,6.97,11.44-.29,21.96-2.88,31.57-7.79,9.61-4.91,16.91-12.06,21.91-21.46Z"/>
  <path class="st0" d="M97.03,674.84c3.78,5.57,8.37,10.29,13.76,14.18,7.34,5.22,16.95,9.06,28.85,11.52,18.58,3.83,34.23,1.72,46.94-6.34,12.71-8.06,20.85-20.77,24.44-38.14,3.54-17.15,1.04-31.95-7.49-44.39-8.53-12.44-22.22-20.61-41.07-24.5-19.01-3.92-34.91-1.82-47.72,6.3-12.8,8.13-20.98,20.79-24.53,37.99-1.96,9.51-2.15,18.21-.57,26.12,1.15,5.94,3.62,11.7,7.4,17.26ZM110.41,635.37c2.01-9.72,6.91-16.83,14.7-21.34,7.79-4.51,18.38-5.38,31.76-2.62,13.54,2.8,23.07,7.9,28.6,15.33,5.53,7.42,7.32,15.83,5.38,25.23-1.94,9.4-6.95,16.45-15.03,21.14-8.08,4.7-18.73,5.68-31.96,2.95-13.43-2.77-22.87-7.82-28.3-15.14-5.44-7.32-7.15-15.84-5.15-25.56Z"/>
  <path class="st0" d="M142.35,550.52c6.14,6.59,14.79,12.28,25.94,17.08,17.44,7.49,33.19,8.56,47.25,3.22,14.07-5.34,24.6-16.16,31.6-32.45,6.91-16.09,7.44-31.09,1.58-44.99-5.86-13.9-17.63-24.66-35.31-32.25-17.83-7.66-33.84-8.8-48.01-3.41-14.17,5.39-24.73,16.15-31.66,32.29-3.83,8.92-5.77,17.41-5.81,25.47-.06,6.05,1.2,12.18,3.78,18.4,2.58,6.21,6.13,11.76,10.64,16.65ZM152.74,497.89c3.92-9.12,10.15-15.1,18.69-17.95,8.54-2.85,19.09-1.58,31.64,3.81,12.7,5.46,21.01,12.38,24.94,20.76,3.92,8.38,3.99,16.98.2,25.8-3.79,8.82-10.11,14.72-18.97,17.69-8.86,2.98-19.49,1.8-31.9-3.53-12.6-5.41-20.83-12.25-24.69-20.52-3.85-8.26-3.82-16.96.09-26.07Z"/>
  <path class="st0" d="M301.51,436.74c5.14-7.26,8.55-13.54,10.25-18.85,2.24-7.11,2.91-13.55,2.01-19.3-1.19-7.61-4.46-15.14-9.82-22.59-4.39-6.09-10.59-11.98-18.6-17.65-9.12-6.45-17.53-10.82-25.25-13.09-7.72-2.28-15.17-2.9-22.34-1.87-7.17,1.03-13.62,3.81-19.34,8.33-4.25,3.37-9.23,9.1-14.97,17.2l-25.42,35.91,97.31,68.88,26.17-36.97ZM208.4,396.84l6.25-8.83c5.67-8.01,9.78-13.17,12.35-15.47,3.4-3.11,7.07-5.06,11.02-5.85,3.95-.79,8.41-.43,13.37,1.1,4.97,1.52,11.21,4.95,18.73,10.27,7.52,5.33,12.99,10.19,16.41,14.61,3.42,4.41,5.34,8.34,5.75,11.79.42,3.45-.11,7.05-1.57,10.8-1.1,2.87-3.6,7.05-7.48,12.54l-10.38,14.67-64.45-45.62Z"/>
  <polygon class="st0" points="390.61 335.52 332.97 261.46 409.22 321.03 427.51 306.8 388.55 218.2 446.19 292.26 463.84 278.53 390.61 184.45 362.12 206.62 395.19 283.93 328.17 233.04 299.74 255.17 372.96 349.25 390.61 335.52"/>
  <path class="st0" d="M491.87,264.09l-2.81-28.68,42.99-20.56,21.07,19.94,23.62-11.3-94.5-86.96-22.96,10.98,9.55,127.59,23.04-11.02ZM516.42,200.07l-29.35,14.03-4.56-46.86,33.91,32.82Z"/>
  <polygon class="st0" points="606 216.58 587.14 141.16 652.62 204.93 676.06 199.07 647.14 83.41 625.44 88.83 644.75 166.07 578.11 100.67 555.39 106.35 584.3 222.01 606 216.58"/>
  <path class="st0" d="M696.89,170.64c1.28,4.56,3.72,8.86,7.31,12.92,3.59,4.05,8.38,7.27,14.37,9.64,5.99,2.38,14.67,3.32,26.05,2.84,9.42-.4,17.01-1.93,22.76-4.59,5.75-2.66,10.28-6.09,13.6-10.31,3.32-4.21,5.5-9.3,6.55-15.26,1.05-5.96,1.27-16.09.66-30.39l-2.67-62.56-24.05,1.03,2.81,65.89c.4,9.42.34,16.18-.19,20.28-.53,4.09-2.47,7.61-5.82,10.54-3.35,2.94-8.43,4.55-15.26,4.84-6.72.28-12.08-.96-16.07-3.75-4-2.79-6.62-6.6-7.85-11.43-.73-3.01-1.31-9.63-1.74-19.87l-2.75-64.51-24.05,1.03,2.71,63.54c.57,13.32,1.78,23.37,3.65,30.12Z"/>
  <polygon class="st0" points="841.98 147.13 891.24 154.21 894.11 134.25 844.85 127.17 848.86 99.24 905.93 107.44 908.8 87.47 827.9 75.85 810.95 193.86 834.78 197.28 841.98 147.13"/>
  <path class="st0" d="M910.6,210.52l17.65-22.77,45.37,14.58,1.63,28.97,24.93,8.01-8.98-128.11-24.23-7.79-80.68,99.3,24.31,7.81ZM970.31,133.7l2.11,47.14-30.97-9.95,28.86-37.19Z"/>
  <path class="st0" d="M1049.11,269.64c11.15,6.28,21.9,8.71,32.25,7.29,10.35-1.42,20.28-6.92,29.78-16.5l-16.7-17.9c-6.03,6.62-12.05,10.57-18.06,11.85-6.01,1.28-11.8.35-17.38-2.79-7.56-4.26-12.13-10.5-13.71-18.74-1.59-8.23,1.32-18.92,8.72-32.05,6.97-12.37,14.41-19.98,22.32-22.8,7.91-2.83,15.71-2.07,23.41,2.26,5.57,3.14,9.43,7.37,11.57,12.68,2.14,5.31,2.31,11.01.51,17.08l23.55,6.73c2.32-9.64,2.37-18.02.15-25.12-3.7-11.98-11.91-21.55-24.62-28.7-14.55-8.2-28.98-10.02-43.3-5.49-14.32,4.54-26.34,15.45-36.08,32.74-9.21,16.35-12.02,31.73-8.45,46.16,3.57,14.42,12.26,25.52,26.05,33.29Z"/>
  <polygon class="st0" points="1125.92 319.33 1144.34 334.82 1208.1 259.03 1235.11 281.75 1248.09 266.32 1175.6 205.32 1162.61 220.76 1189.68 243.53 1125.92 319.33"/>
  <path class="st0" d="M1199.73,350.57c-2.88,3.76-4.86,8.29-5.95,13.6-1.09,5.31-.78,11.06.91,17.28,1.7,6.22,6.15,13.73,13.36,22.54,5.98,7.3,11.76,12.44,17.33,15.45,5.58,3,11.05,4.56,16.41,4.69,5.36.13,10.74-1.18,16.14-3.92,5.4-2.74,13.63-8.64,24.7-17.71l48.44-39.68-15.25-18.62-51.02,41.79c-7.3,5.98-12.74,9.98-16.33,12.01-3.59,2.03-7.57,2.59-11.93,1.67-4.36-.91-8.7-4.01-13.03-9.3-4.26-5.2-6.48-10.24-6.65-15.11-.17-4.87,1.3-9.25,4.43-13.14,1.97-2.38,6.92-6.82,14.85-13.32l49.95-40.92-15.25-18.62-49.2,40.3c-10.32,8.45-17.62,15.45-21.91,20.99Z"/>
  <path class="st0" d="M1261.29,476.29l44-23.27,2.28,4.31c2.59,4.89,4.08,8.67,4.48,11.34.4,2.67.07,5.58-1,8.72-1.07,3.14-4.26,9.61-9.56,19.41l-14.8,27.51,13.46,25.45,13.76-23.74c5.51-9.41,9.08-16.47,10.71-21.16,1.62-4.69,2.56-10.05,2.82-16.07,6.23,8.54,13.15,13.77,20.76,15.7,7.61,1.92,15.37.8,23.28-3.39,6.23-3.29,10.96-7.76,14.18-13.38,3.22-5.63,4.42-11.49,3.62-17.6-.8-6.1-4.19-14.79-10.14-26.05l-23.68-44.79-105.39,55.73,11.25,21.28ZM1348.85,429.99l8.78,16.61c4.56,8.63,7.18,13.87,7.85,15.72,1.25,3.76,1.28,7.16.1,10.2-1.18,3.05-3.54,5.51-7.09,7.38-3.16,1.67-6.18,2.35-9.05,2.02-2.87-.32-5.41-1.53-7.61-3.61-2.21-2.09-6.01-8.23-11.41-18.44l-8.33-15.74,26.75-14.14Z"/>
  <rect class="st0" x="1301.07" y="537.76" width="119.22" height="24.07" transform="translate(-105.9 496.33) rotate(-19.91)"/>
  <polygon class="st0" points="1321.02 621.13 1397.09 605.08 1330.94 668.15 1335.93 691.79 1452.58 667.17 1447.96 645.29 1370.06 661.73 1437.88 597.55 1433.05 574.63 1316.4 599.25 1321.02 621.13"/>
  <path class="st0" d="M1453.82,738.17c-5.13-10.04-12.51-17.68-22.15-22.9-9.64-5.23-20.67-7.85-33.08-7.88-11.44-.03-22.03,2.28-31.77,6.92-9.74,4.64-17.24,11.59-22.49,20.85-5.25,9.26-7.89,20.12-7.92,32.59-.02,9.81,1.81,19.51,5.51,29.08,3.69,9.58,7.97,16.89,12.84,21.95l47.49.11.11-51.88-20.08-.04-.06,27.57-15.13-.03c-2.81-3.64-5.2-7.99-7.17-13.07-1.97-5.07-2.95-10.13-2.94-15.17.02-10.19,3.58-18.42,10.67-24.7,7.09-6.27,17.71-9.39,31.86-9.36,13.12.03,23.01,3.15,29.66,9.38,6.66,6.22,9.97,14.59,9.95,25.11-.02,6.94-1.72,12.72-5.12,17.35-3.4,4.63-8.03,7.77-13.89,9.44l4.42,23.92c10.96-2.36,19.55-7.7,25.77-16,6.22-8.31,9.36-19.86,9.39-34.66.02-11.39-1.93-20.9-5.87-28.56Z"/>
  <path class="st0" d="M464.97,1275.13c5.49-7.74,8.09-15.38,7.79-22.94-.29-7.55-2.71-14.03-7.24-19.45-2.94-3.54-10.37-9.55-22.31-18.02l-31.51-22.35-68.98,97.24,19.63,13.93,26.02-36.68,12.8,9.08c8.89,6.3,16,10.65,21.35,13.05,3.98,1.7,8.47,2.57,13.45,2.61,4.99.05,10-1.19,15.06-3.73,5.05-2.53,9.7-6.78,13.93-12.75ZM444.56,1261.05c-2.04,2.87-4.57,4.87-7.59,5.98-3.02,1.12-6.19,1.26-9.52.42-3.33-.83-8.87-4-16.6-9.48l-10.75-7.62,19.57-27.59,9.48,6.73c7.07,5.02,11.63,8.58,13.66,10.69,2.78,2.83,4.39,6.14,4.83,9.91.45,3.77-.58,7.43-3.09,10.97Z"/>
  <path class="st0" d="M554.69,1338.41c7.19-3.14,12.63-8.79,16.32-16.94,2.9-6.42,3.9-12.84,3-19.26-.91-6.42-3.55-11.79-7.93-16.12-4.38-4.33-12.37-9.12-23.98-14.37l-46.16-20.88-49.13,108.63,21.93,9.92,20.51-45.35,4.45,2.01c5.04,2.28,8.53,4.35,10.49,6.22,1.95,1.87,3.47,4.37,4.55,7.5,1.08,3.14,2.53,10.2,4.34,21.2l5.17,30.81,26.23,11.86-3.68-27.19c-1.42-10.82-2.92-18.58-4.51-23.28-1.59-4.71-4.13-9.51-7.62-14.42,10.16,2.93,18.83,2.82,26.03-.32ZM533.63,1321.61c-3.02-.29-9.79-2.82-20.31-7.58l-16.23-7.34,12.47-27.56,17.12,7.74c8.89,4.02,14.17,6.56,15.84,7.61,3.29,2.2,5.4,4.87,6.34,8,.93,3.13.58,6.52-1.08,10.18-1.47,3.26-3.44,5.64-5.91,7.14-2.46,1.51-5.21,2.11-8.23,1.81Z"/>
  <path class="st0" d="M631.26,1302.83l-71.7,105.96,24.9,5.66,15.6-24.22,46.47,10.56,4.15,28.71,25.53,5.8-20.12-126.83-24.82-5.64ZM611.72,1372.28l25.51-39.57,6.21,46.78-31.72-7.21Z"/>
  <path class="st0" d="M734.8,1347.11c5.66-6.21,12.9-9.2,21.74-8.99,6.39.16,11.79,2.08,16.17,5.76,4.38,3.69,7.2,8.64,8.46,14.85l23.96-5.11c-2.48-9.6-6.36-17.02-11.66-22.25-8.9-8.84-20.63-13.44-35.21-13.79-16.69-.41-30.3,4.75-40.81,15.48-10.51,10.72-16.01,26.01-16.49,45.84-.46,18.75,4.28,33.66,14.2,44.72,9.93,11.06,22.8,16.78,38.63,17.17,12.79.31,23.42-2.59,31.9-8.7,8.47-6.11,14.66-15.63,18.55-28.55l-23.15-7.97c-2.22,8.68-5.68,14.99-10.39,18.94-4.71,3.95-10.26,5.85-16.65,5.69-8.67-.21-15.64-3.58-20.9-10.11-5.26-6.53-7.71-17.32-7.34-32.39.35-14.2,3.35-24.4,9-30.61Z"/>
  <polygon class="st0" points="903.31 1305.38 809.73 1320.21 812.89 1340.13 847.83 1334.59 863.33 1432.42 887.1 1428.66 871.6 1330.83 906.46 1325.3 903.31 1305.38"/>
  <rect class="st0" x="927.83" y="1295.57" width="24.07" height="119.22" transform="translate(-338.75 313.55) rotate(-16.09)"/>
  <path class="st0" d="M1051.73,1328.93c1.73,8.79,1.32,15.98-1.23,21.57-2.55,5.59-6.74,9.69-12.59,12.3-7.92,3.54-15.66,3.49-23.22-.14-7.56-3.63-14.41-12.32-20.56-26.09-5.79-12.97-7.47-23.47-5.04-31.51,2.44-8.04,7.69-13.86,15.76-17.46,5.84-2.61,11.53-3.19,17.08-1.75,5.54,1.44,10.22,4.7,14.03,9.77l19.43-14.92c-6.37-7.61-13.07-12.63-20.09-15.07-11.83-4.16-24.41-3.26-37.72,2.69-15.25,6.81-25.31,17.32-30.19,31.52-4.88,14.2-3.27,30.36,4.82,48.48,7.65,17.13,18.33,28.55,32.05,34.27,13.72,5.72,27.8,5.35,42.26-1.11,11.68-5.22,20.03-12.41,25.06-21.57,5.02-9.16,6.51-20.41,4.47-33.75l-24.33,2.76Z"/>
  <polygon class="st0" points="1129.03 1311.22 1110.38 1284.67 1159.36 1250.27 1147.81 1233.83 1098.83 1268.24 1083.64 1246.61 1136.28 1209.63 1124.68 1193.13 1052.35 1243.94 1120.88 1341.5 1195.08 1289.38 1183.53 1272.94 1129.03 1311.22"/>
  <polygon class="st0" points="215.41 1016.6 188.78 979.24 188.36 1025.11 144.61 1038.89 188.11 1053.47 187.69 1099.34 214.99 1062.47 258.49 1077.04 231.86 1039.69 259.16 1002.82 215.41 1016.6"/>
  <polygon class="st0" points="1348.74 1025.11 1348.32 979.24 1321.7 1016.6 1277.94 1002.82 1305.24 1039.69 1278.61 1077.04 1322.11 1062.47 1349.41 1099.34 1349 1053.47 1392.5 1038.89 1348.74 1025.11"/>
</svg>