<svg width="100" height="33" viewBox="0 0 100 33" fill="none" xmlns="http://www.w3.org/2000/svg">
<path d="M5.04449 0.00197792L0 11.7307H3.28422L4.21499 9.38203H9.626L10.552 11.7307H13.9085L8.86885 0.00197792H5.04449ZM6.91085 2.73159L8.5602 6.83568H5.25669L6.91085 2.73159Z" fill="#919FAB"/>
<path d="M14.2557 11.7287V0L18.9228 0.0173373L21.6373 7.57924L24.2868 0H28.9166V11.7287H25.9844V3.0865L22.8763 11.7287H20.3047L17.1879 3.0865V11.7287H14.2557Z" fill="#919FAB"/>
<path d="M30.9228 11.7287V0H40.4909V2.62353H33.8858V4.62974H40.3366V7.09894H33.8858V9.18232H40.4909V11.7287H30.9228Z" fill="#919FAB"/>
<path d="M42.1885 0.00197792V11.7307H45.1207V7.56389H46.3553L49.871 11.7307H53.4542L49.5961 7.40957C51.1795 7.27595 52.8128 5.91695 52.8128 3.80706C52.8128 1.33893 50.8756 0.00197792 48.7136 0.00197792H42.1885ZM45.1207 2.62549H48.4724C49.2765 2.62549 49.8614 3.25444 49.8614 3.86009C49.8614 4.6393 49.1035 5.0947 48.5158 5.0947H45.1207V2.62549Z" fill="#919FAB"/>
<path d="M57.0037 11.7287H54.0098V0H57.0037V11.7287Z" fill="#919FAB"/>
<path d="M64.1026 11.7287H63.4564C60.3296 11.7287 58.4312 9.26528 58.4312 5.91257C58.4312 2.47702 60.3084 0 64.257 0H67.4978V2.77784H64.1385C62.5356 2.77784 61.4019 4.02875 61.4019 5.9415C61.4019 8.2129 62.6982 9.16689 64.5656 9.16689H65.3372L64.1026 11.7287Z" fill="#919FAB"/>
<path d="M70.483 0.00197792L65.4385 11.7307H68.7227L69.6535 9.38203H75.0645L75.9904 11.7307H79.347L74.3074 0.00197792H70.483ZM72.3494 2.73159L73.9987 6.83568H70.6952L72.3494 2.73159Z" fill="#919FAB"/>
<path d="M79.6894 11.7287V0H83.4173L88.1773 7.36901V0H91.1095V11.7287H87.5021L82.6216 4.16677V11.7287H79.6894Z" fill="#919FAB"/>
<path d="M21.3547 32.2539V20.5252H30.9228V23.1487H24.3177V25.1549H30.7685V27.6241H24.3177V29.7075H30.9228V32.2539H21.3547Z" fill="#919FAB"/>
<path d="M68.2385 32.2539V20.5252H77.8067V23.1487H71.2016V25.1549H77.6215V27.6241H71.2016V29.7075H77.8067V32.2539H68.2385Z" fill="#919FAB"/>
<path d="M31.2942 32.2539L35.9528 26.4619L31.1832 20.5252H34.8774L37.7179 24.1952L40.5681 20.5252H44.1176L39.4107 26.3895L44.0779 32.2539H40.3844L37.6263 28.6417L34.9353 32.2539H31.2942Z" fill="#919FAB"/>
<path d="M44.4262 20.5272V32.2558H47.4356V28.552H50.522C53.1337 28.552 55.1132 27.1665 55.1132 24.4721C55.1132 22.24 53.5606 20.5272 50.903 20.5272H44.4262ZM47.4356 23.1796H50.686C51.5297 23.1796 52.1328 23.6967 52.1328 24.53C52.1328 25.3127 51.5328 25.8803 50.6764 25.8803H47.4356V23.1796Z" fill="#919FAB"/>
<path d="M56.3864 20.5252V32.2539H59.3186V28.0871H60.5532L64.0689 32.2539H67.6521L63.794 27.9328C65.3774 27.7991 67.0107 26.4402 67.0107 24.3303C67.0107 21.8621 65.0735 20.5252 62.9114 20.5252H56.3864ZM59.3186 23.1487H62.6703C63.4743 23.1487 64.0592 23.7776 64.0592 24.3833C64.0592 25.1625 63.3014 25.6179 62.7137 25.6179H59.3186V23.1487Z" fill="#919FAB"/>
<path d="M79.1647 32.2539V29.7075H85.0329C85.9012 29.7075 86.2772 29.2383 86.2772 28.7237C86.2772 28.2306 85.9024 27.7322 85.0329 27.7322H82.3811C80.0761 27.7322 78.7924 26.3278 78.7924 24.2193C78.7924 22.3387 79.968 20.5252 83.3932 20.5252H89.1032L87.8686 23.1641H82.9302C81.9862 23.1641 81.6956 23.6595 81.6956 24.1325C81.6956 24.6187 82.0547 25.1549 82.7759 25.1549H85.5538C88.1233 25.1549 89.2383 26.6124 89.2383 28.5211C89.2383 30.5732 87.9958 32.2539 85.4139 32.2539H79.1647Z" fill="#919FAB"/>
<path d="M89.9265 32.2539V29.7075H95.7946C96.6629 29.7075 97.0389 29.2383 97.0389 28.7237C97.0389 28.2306 96.6641 27.7322 95.7946 27.7322H93.1429C90.8379 27.7322 89.5541 26.3278 89.5541 24.2193C89.5541 22.3387 90.7297 20.5252 94.155 20.5252H99.865L98.6304 23.1641H93.692C92.748 23.1641 92.4574 23.6595 92.4574 24.1325C92.4574 24.6187 92.8165 25.1549 93.5377 25.1549H96.3155C98.885 25.1549 100 26.6124 100 28.5211C100 30.5732 98.7576 32.2539 96.1756 32.2539H89.9265Z" fill="#919FAB"/>
</svg>
