<svg width="100" height="22" viewBox="0 0 100 22" fill="none" xmlns="http://www.w3.org/2000/svg">
<path d="M21.1649 10.5776C21.2331 16.2437 16.547 21.1578 10.5425 21.1273C7.74465 21.1251 5.06219 20.0118 3.08513 18.032C1.10807 16.0523 -0.00166478 13.3683 1.87458e-06 10.5704C1.87458e-06 4.77415 4.61259 0.0143894 10.5704 3.11532e-05C16.6421 -0.0143271 21.2412 4.93657 21.1649 10.5776ZM17.5879 10.5533C17.589 9.16776 17.1788 7.81303 16.4093 6.66076C15.6399 5.50848 14.5457 4.6105 13.2655 4.08055C11.9852 3.55061 10.5765 3.41254 9.21778 3.68383C7.85901 3.95513 6.61134 4.62359 5.63278 5.60454C4.65422 6.58549 3.98881 7.83479 3.72083 9.19421C3.45285 10.5536 3.59436 11.962 4.12743 13.2409C4.6605 14.5199 5.56115 15.6118 6.7153 16.3785C7.86945 17.1452 9.22517 17.552 10.6107 17.5476C11.5294 17.5512 12.4397 17.3726 13.289 17.0221C14.1382 16.6717 14.9096 16.1564 15.5584 15.506C16.2072 14.8555 16.7207 14.0829 17.069 13.2328C17.4174 12.3828 17.5938 11.472 17.5879 10.5533Z" fill="#919FAB"/>
<path d="M37.5746 10.5489C37.5935 11.8169 37.3359 13.005 36.6898 14.0989C35.9055 15.4235 34.7568 16.2527 33.2663 16.6215C31.9711 16.9558 30.6034 16.8729 29.3581 16.3846C27.8514 15.804 26.8589 14.7065 26.2639 13.2276C25.9289 12.3984 25.7605 11.5113 25.7686 10.6171C25.7838 9.09149 26.1275 7.63233 27.0868 6.39932C27.8048 5.45265 28.8246 4.77955 29.9773 4.49147C31.3808 4.13251 32.7592 4.19084 34.0981 4.72658C35.2647 5.19054 36.1289 6.00447 36.7392 7.0948C37.3494 8.18513 37.5917 9.33199 37.5746 10.5489ZM31.6653 14.5557C33.0527 14.5611 34.0245 13.8997 34.5432 12.6299C35.0359 11.422 35.0341 10.1953 34.7146 8.95778C34.5047 8.14205 34.1071 7.41337 33.3686 6.96647C31.9794 6.12382 29.6955 6.30868 28.8502 8.40229C28.3745 9.57033 28.3006 10.8634 28.6402 12.078C29.0692 13.6583 30.0339 14.5288 31.6653 14.5557Z" fill="#919FAB"/>
<path d="M76.0224 8.61318C75.7236 8.61318 75.4247 8.61318 75.125 8.61318C74.7409 8.61318 74.7364 8.61318 74.6216 8.2632C74.3586 7.4717 73.8247 6.91711 73.0386 6.68918C71.4358 6.21805 69.8977 6.76007 69.239 8.51088C68.749 9.80419 68.741 11.2307 69.2166 12.5294C69.5316 13.4268 70.114 14.0989 71.0598 14.396C71.5714 14.5677 72.1182 14.6069 72.6491 14.5099C73.5662 14.3305 74.2043 13.792 74.5336 12.9126C74.6324 12.6815 74.7072 12.441 74.7571 12.1947C74.793 11.9533 74.8818 11.8626 75.1295 11.868C75.7864 11.8806 76.4433 11.868 77.1038 11.8743C77.3882 11.8743 77.4089 11.894 77.373 12.1911C77.0696 14.5952 75.4884 16.4088 72.9578 16.7633C71.816 16.9282 70.6509 16.7713 69.5935 16.3101C68.1451 15.6864 67.1777 14.5862 66.6519 13.1199C65.9698 11.2183 66.0237 9.31853 66.8735 7.48067C67.6928 5.70205 69.1116 4.65659 71.0509 4.35417C72.5899 4.11456 74.0562 4.32276 75.3637 5.23182C76.4496 5.98562 77.0553 7.04634 77.2734 8.33679C77.3146 8.57908 77.2823 8.61139 77.0158 8.61677C76.6766 8.61767 76.3482 8.61318 76.0224 8.61318Z" fill="#919FAB"/>
<path d="M88.2484 16.5084C87.92 16.5084 87.5916 16.5084 87.2613 16.5084C86.897 16.5084 86.9024 16.5039 86.792 16.18C86.5712 15.5177 86.337 14.8599 86.1279 14.1949C86.0543 13.9607 85.9484 13.8728 85.6891 13.8755C84.4202 13.8907 83.1504 13.8871 81.8815 13.8755C81.6544 13.8755 81.5378 13.9347 81.4633 14.1671C81.2452 14.8456 80.9877 15.5132 80.7615 16.1881C80.6852 16.4142 80.582 16.5201 80.3209 16.512C79.6488 16.4914 78.9748 16.512 78.3045 16.5048C77.9455 16.5048 77.9311 16.4932 78.0514 16.1629C78.3116 15.4522 78.5818 14.7442 78.8519 14.0361C79.8875 11.3152 80.9245 8.59493 81.9631 5.87524C82.095 5.52885 82.2557 5.19054 82.3598 4.83607C82.436 4.57762 82.5796 4.52736 82.8192 4.53095C83.4905 4.54352 84.1653 4.53095 84.8348 4.53634C85.2045 4.53634 85.2054 4.54172 85.3409 4.90158C85.8793 6.34817 86.4208 7.79506 86.9652 9.24225C87.8123 11.4947 88.6702 13.7445 89.5084 15.9996C89.6995 16.512 89.7955 16.5084 89.1431 16.5057L88.2484 16.5084ZM83.7615 11.8662C84.1788 11.8662 84.5952 11.8716 85.0125 11.8662C85.2727 11.8617 85.3032 11.8231 85.2188 11.5782C84.789 10.3218 84.352 9.05829 83.9176 7.79925C83.8997 7.7472 83.8988 7.67002 83.8144 7.68169C83.7435 7.69246 83.7435 7.76335 83.7247 7.8163C83.276 9.08521 82.8273 10.3559 82.3643 11.6212C82.2799 11.8528 82.3714 11.8716 82.5563 11.8698C82.9538 11.8635 83.3559 11.8671 83.7579 11.8662H83.7615Z" fill="#919FAB"/>
<path d="M39.3532 5.064C39.3532 4.95901 39.3532 4.85491 39.3532 4.75081C39.3479 4.60454 39.408 4.52647 39.5623 4.53454C39.6368 4.53454 39.7122 4.53454 39.7867 4.53454C41.4747 4.53454 43.1636 4.52736 44.8516 4.53454C45.4338 4.5285 46.0126 4.62416 46.562 4.81722C47.6344 5.21387 48.3702 5.94973 48.7211 7.04365C49.0547 8.02668 49.0132 9.09834 48.6044 10.0526C48.1189 11.195 47.2171 11.842 46.0209 12.1103C45.6259 12.1914 45.2232 12.2284 44.8201 12.2207C44.0125 12.2207 43.2048 12.2207 42.3972 12.2207C42.0302 12.2207 42.0239 12.2288 42.023 12.6012C42.023 13.7337 42.023 14.8662 42.023 15.9987C42.023 16.1028 42.023 16.2069 42.023 16.311C42.023 16.442 41.9638 16.4994 41.8336 16.4994C41.0718 16.4994 40.3081 16.4994 39.548 16.4994C39.3864 16.4994 39.3434 16.4187 39.3506 16.2769C39.3559 16.1728 39.3506 16.0687 39.3506 15.9646L39.3532 5.064ZM42.0248 8.3664C42.0248 8.87253 42.0248 9.37955 42.0248 9.88568C42.0248 10.0598 42.0625 10.1702 42.2698 10.1666C43.0613 10.1522 43.8581 10.2267 44.6434 10.1298C45.7032 9.99965 46.2281 9.673 46.3287 8.58267C46.4022 7.78758 46.1348 7.14685 45.4851 6.86237C45.2134 6.73713 44.9198 6.6664 44.6209 6.65418C43.8447 6.64072 43.0675 6.64879 42.2877 6.63444C42.0553 6.63444 42.0185 6.74033 42.0185 6.93596C42.0311 7.41517 42.0248 7.89258 42.0248 8.36909V8.3664Z" fill="#919FAB"/>
<path d="M55.1545 4.53813C56.6627 4.53813 58.1715 4.53813 59.6809 4.53813C60.0641 4.53813 60.0668 4.53813 60.0686 4.93388C60.0686 5.45527 60.0686 5.97665 60.0686 6.49803C60.0686 6.80763 60.0587 6.81391 59.7375 6.81481C58.8401 6.81481 57.9427 6.81481 57.0453 6.81481C56.9403 6.81481 56.8362 6.8193 56.7312 6.81481C56.5679 6.80763 56.4754 6.86417 56.488 7.04454C56.4961 7.14864 56.488 7.25274 56.488 7.35684V15.8946C56.488 15.9538 56.488 16.014 56.488 16.0741C56.488 16.5425 56.5401 16.5048 56.0555 16.5057C55.4129 16.5057 54.7704 16.5057 54.1279 16.5057C53.8147 16.5057 53.8084 16.4977 53.8075 16.1836C53.8075 14.9766 53.8075 13.7705 53.8075 12.5635V7.3353C53.8075 7.21594 53.8075 7.09749 53.8075 6.97634C53.8075 6.85519 53.7429 6.8184 53.637 6.8175H53.1883C52.3214 6.8175 51.4554 6.8175 50.5859 6.8175C50.2431 6.8175 50.2377 6.80943 50.2341 6.46483C50.2341 5.9578 50.2341 5.45168 50.2341 4.94465C50.2341 4.54352 50.2386 4.54082 50.6702 4.54082C52.1653 4.53783 53.66 4.53694 55.1545 4.53813Z" fill="#919FAB"/>
<path d="M91.4288 5.0999C91.4338 5.01023 91.4338 4.92035 91.4288 4.83068C91.401 4.5848 91.5266 4.53095 91.7474 4.53365C92.4043 4.54352 93.062 4.53365 93.7216 4.53813C94.0617 4.53813 94.068 4.54621 94.0689 4.88811C94.0689 6.12472 94.0689 7.36222 94.0689 8.59882C94.0689 10.3416 94.0689 12.0846 94.0689 13.8279C94.0689 14.2829 94.0133 14.2703 94.4961 14.2703H99.3815C99.4865 14.2703 99.5906 14.2703 99.6955 14.2703C99.8203 14.2703 99.8894 14.3215 99.8885 14.4543C99.8885 15.0807 99.8885 15.7065 99.8885 16.3316C99.8885 16.4393 99.84 16.4994 99.7314 16.5039C99.6229 16.5084 99.5223 16.5039 99.4183 16.5039H91.8883C91.8285 16.5003 91.7686 16.5003 91.7088 16.5039C91.4952 16.5282 91.4207 16.4393 91.427 16.2239C91.4405 15.7474 91.427 15.2709 91.427 14.7935L91.4288 5.0999Z" fill="#919FAB"/>
<path d="M64.4461 10.5444C64.4461 12.4073 64.4461 14.27 64.4461 16.1324C64.4461 16.5021 64.4461 16.5057 64.0871 16.5075C63.4446 16.5075 62.8021 16.5075 62.1595 16.5075C61.7467 16.5075 61.7763 16.5291 61.7763 16.1154C61.7763 13.3442 61.7763 10.5725 61.7763 7.80015C61.7763 6.84712 61.7763 5.89349 61.7763 4.93927C61.7763 4.54172 61.7763 4.53903 62.1532 4.53813C62.7958 4.53813 63.4383 4.53813 64.0808 4.53813C64.4398 4.53813 64.4398 4.54352 64.4398 4.91055C64.444 6.78968 64.4461 8.66762 64.4461 10.5444Z" fill="#919FAB"/>
<path d="M98.9444 6.63713C98.8034 6.63831 98.6636 6.61157 98.533 6.55843C98.4024 6.50529 98.2836 6.42682 98.1835 6.32754C98.0834 6.22826 98.0039 6.11013 97.9497 5.97998C97.8955 5.84983 97.8676 5.71023 97.8676 5.56923C97.8692 5.43149 97.8981 5.29543 97.9527 5.16894C98.0072 5.04245 98.0863 4.92803 98.1854 4.83231C98.2844 4.73658 98.4015 4.66145 98.5298 4.61127C98.6581 4.56108 98.7951 4.53683 98.9328 4.53993C99.4874 4.53993 99.98 4.99849 99.9998 5.53244C100.006 5.81873 99.8981 6.09574 99.7003 6.30279C99.5025 6.50984 99.2307 6.63007 98.9444 6.63713ZM98.5316 6.21446C98.6384 6.38496 98.8008 6.41368 98.9857 6.40022C99.1051 6.39124 99.2442 6.36522 99.2953 6.26381C99.3312 6.19112 99.1867 6.14267 99.1401 6.06818C99.0772 5.96768 99.0117 5.86806 98.9408 5.77384C98.9269 5.74758 98.9049 5.7265 98.8781 5.71373C98.8513 5.70095 98.821 5.69718 98.7919 5.70295C98.7138 5.72359 98.7246 5.79268 98.7174 5.84653C98.6959 5.9928 98.7847 6.19382 98.5263 6.21984C98.5263 5.85012 98.5262 5.4795 98.52 5.10887C98.52 5.05862 98.555 4.98503 98.4634 4.97157C98.4349 4.96717 98.4058 4.97357 98.3818 4.98952C98.2878 5.06322 98.2139 5.15939 98.1668 5.26917C98.1198 5.37895 98.1011 5.49881 98.1126 5.61769C98.1485 5.86448 98.1879 6.1642 98.5316 6.21446ZM98.9121 4.77863C98.8143 4.80286 98.6286 4.73646 98.6303 4.88901C98.6321 5.04157 98.8098 4.95811 98.9148 4.97875C98.9447 4.98151 98.9747 4.98151 99.0046 4.97875C99.4039 5.01465 99.5349 5.24169 99.3025 5.56923C99.1374 5.80345 99.2962 5.92011 99.3976 6.07088C99.4577 6.16061 99.525 6.11844 99.569 6.05203C99.6568 5.93169 99.7088 5.78904 99.7191 5.64045C99.7295 5.49187 99.6976 5.34339 99.6273 5.21207C99.4802 4.91683 99.2558 4.75979 98.9121 4.77504V4.77863ZM98.9247 5.16541C98.8062 5.15823 98.7165 5.18425 98.7174 5.32873C98.7174 5.43014 98.7488 5.50193 98.8672 5.50103C99.0099 5.50103 99.158 5.48398 99.1607 5.30899C99.1625 5.17169 99.0297 5.169 98.9247 5.16182V5.16541Z" fill="#919FAB"/>
<path d="M14.2524 10.5183C14.251 11.0006 14.1539 11.4777 13.9668 11.9222C13.7796 12.3666 13.5062 12.7695 13.1622 13.1075C12.8182 13.4455 12.4105 13.7118 11.9629 13.8911C11.5152 14.0704 11.0364 14.159 10.5542 14.1519C8.46419 14.1214 6.92696 12.4953 6.92606 10.4941C6.92606 8.34486 8.71276 6.80943 10.6475 6.84084C11.6117 6.85525 12.5312 7.24962 13.2062 7.93824C13.8812 8.62686 14.2572 9.55407 14.2524 10.5183Z" fill="#919FAB"/>
</svg>
