<svg width="100" height="29" viewBox="0 0 100 29" fill="none" xmlns="http://www.w3.org/2000/svg">
<path d="M34.5744 15.9197C33.7087 15.4524 33.272 15.0617 33.272 14.5177C33.272 13.8359 33.8849 13.3916 34.8042 13.3916C35.5327 13.4085 36.2509 13.5672 36.9187 13.8589L37.6848 11.4533C37.6848 11.4533 37.0183 10.8634 34.8885 10.8634C31.9313 10.8634 29.8782 12.5565 29.8782 14.9391C29.8782 16.2874 30.8358 17.3217 32.1152 18.0571C33.1495 18.647 33.5172 19.0684 33.5172 19.6813C33.5172 20.2942 32.9962 20.8228 32.0386 20.8228C31.0692 20.7736 30.1225 20.5121 29.2653 20.0567L28.4302 22.4623C29.4467 23.0399 30.6017 23.3287 31.7705 23.2973C34.8349 23.2973 37.003 21.7651 37.003 19.0991C36.9723 17.7124 35.8998 16.6782 34.5744 15.9197Z" fill="#919FAB"/>
<path d="M46.7019 10.8634C46.0051 10.8698 45.3189 11.0344 44.6951 11.345C44.0713 11.6556 43.5263 12.1039 43.1012 12.6561H43.0552L44.3576 5.85307H40.9791L37.6925 23.1211H41.0787L42.2049 17.2068C42.6492 14.9698 43.806 13.5984 44.8862 13.5984C45.6524 13.5984 45.9435 14.1117 45.9435 14.8472C45.944 15.3618 45.8927 15.8751 45.7902 16.3794L44.5185 23.1211H47.9047L49.2301 16.1419C49.3758 15.4124 49.4578 14.6716 49.4752 13.9278C49.4752 12.0126 48.464 10.8634 46.7019 10.8634Z" fill="#919FAB"/>
<path d="M57.1363 10.8634C53.0606 10.8634 50.3639 14.5484 50.3639 18.647C50.3639 21.2748 51.9804 23.3816 55.0295 23.3816C59.0286 23.3816 61.7329 19.7962 61.7329 15.5979C61.7329 13.1617 60.308 10.8634 57.1363 10.8634ZM55.4662 20.8228C54.317 20.8228 53.8267 19.8345 53.8267 18.6087C53.8267 16.6705 54.8303 13.5065 56.669 13.5065C57.8717 13.5065 58.2701 14.5331 58.2701 15.5443C58.2701 17.5898 57.2589 20.8228 55.4662 20.8228Z" fill="#919FAB"/>
<path d="M70.3976 10.8634C69.6921 10.9076 69.006 11.112 68.3913 11.4611C67.7767 11.8103 67.2498 12.2949 66.8505 12.8783H66.8046L66.9961 11.0549H64.0006C63.8551 12.2884 63.5869 14.1194 63.3188 15.552L60.9592 27.9553H64.3454L65.28 22.9449H65.3566C65.9692 23.2595 66.6528 23.41 67.3409 23.3816C71.3246 23.3816 73.9217 19.3059 73.9217 15.1842C73.8834 12.9012 72.8798 10.8634 70.3976 10.8634ZM67.157 20.8228C66.6464 20.8302 66.1497 20.6565 65.755 20.3325L66.3219 17.1685C66.7126 15.054 67.8541 13.652 69.0033 13.652C70.0299 13.652 70.3516 14.6097 70.3516 15.5213C70.3516 17.7124 69.0493 20.8228 67.157 20.8228Z" fill="#919FAB"/>
<path d="M78.7252 5.99864C78.4697 6.00061 78.2171 6.05329 77.9822 6.1536C77.7472 6.25391 77.5344 6.39987 77.3563 6.58301C77.1781 6.76615 77.0381 6.98284 76.9443 7.2205C76.8505 7.45817 76.8048 7.71208 76.8099 7.96753C76.7865 8.1871 76.8108 8.40914 76.8812 8.61843C76.9516 8.82773 77.0664 9.01934 77.2177 9.18014C77.3691 9.34093 77.5534 9.46712 77.758 9.55005C77.9627 9.63299 78.1828 9.67071 78.4034 9.66063H78.4494C78.7119 9.67125 78.9737 9.62776 79.2186 9.53287C79.4636 9.43798 79.6864 9.29372 79.8732 9.10906C80.06 8.9244 80.2069 8.70328 80.3046 8.45945C80.4023 8.21563 80.4488 7.9543 80.4413 7.69173C80.4537 7.46414 80.4177 7.2365 80.3356 7.02389C80.2534 6.81128 80.127 6.61855 79.9648 6.45846C79.8025 6.29838 79.6081 6.17461 79.3944 6.09533C79.1807 6.01606 78.9526 5.9831 78.7252 5.99864Z" fill="#919FAB"/>
<path d="M73.983 23.1365H77.3769L79.6828 11.1316H76.266L73.983 23.1365Z" fill="#919FAB"/>
<path d="M88.3015 11.1085H85.9419L86.0645 10.5416C86.2637 9.3848 86.9532 8.35821 88.0793 8.35821C88.4459 8.35872 88.8102 8.41557 89.1595 8.52676L89.8261 5.87602C89.2375 5.65184 88.6087 5.5527 87.9797 5.5849C86.7768 5.54869 85.6013 5.94867 84.6702 6.71108C83.5919 7.72274 82.8963 9.07596 82.7013 10.5416L82.6017 11.1085H81.0311L80.5408 13.6597H82.0731L80.3187 23.1211H83.7049L85.4976 13.6444H87.7959L88.3015 11.1085Z" fill="#919FAB"/>
<path d="M96.4529 11.1316C96.4529 11.1316 94.3385 16.4943 93.3885 19.3825H93.3425C93.2812 18.4479 92.5075 11.1316 92.5075 11.1316H88.9451L90.9829 22.1558C91.0116 22.2499 91.0203 22.349 91.0084 22.4466C90.9966 22.5442 90.9644 22.6383 90.914 22.7228C90.4679 23.5382 89.8352 24.2365 89.0677 24.7606C88.4796 25.1719 87.8343 25.4946 87.1524 25.7182L88.087 28.5912C89.3282 28.2629 90.4682 27.6311 91.4043 26.7525C92.9365 25.2969 94.3768 23.0675 95.8477 20.0184L100 11.1316H96.4529Z" fill="#919FAB"/>
<path d="M16.1342 27.871L24.5614 26.0553C24.5614 26.0553 21.497 5.60023 21.497 5.46233C21.4871 5.40237 21.4578 5.34733 21.4134 5.30577C21.3691 5.26421 21.3123 5.23845 21.2518 5.2325L19.0071 5.06396L17.3523 3.42449C17.3143 3.38512 17.2668 3.35612 17.2144 3.34022L16.1342 27.871Z" fill="#919FAB"/>
<path d="M16.8161 3.32491H16.7318L15.9044 3.57772C15.4064 2.15276 14.5254 0.835057 12.9855 0.835057H12.8553C12.6932 0.593297 12.4776 0.39218 12.2251 0.247348C11.9726 0.102515 11.6902 0.0178719 11.3997 0C7.79897 0 6.08289 4.49705 5.54662 6.78005L3.02612 7.54616C2.26001 7.79131 2.26001 7.8143 2.12211 8.54976C2.0455 9.10902 0 24.8908 0 24.8908L15.7588 27.8403L16.8161 3.32491ZM12.7327 4.4281V4.58132L9.95173 5.44702C10.488 3.37853 11.4839 2.38259 12.3726 2.0072C12.6377 2.78584 12.7597 3.60602 12.7327 4.4281ZM11.3001 0.995939C11.4652 1 11.6252 1.05336 11.7597 1.14916C10.6106 1.6931 9.37715 3.05677 8.84854 5.74581L6.65747 6.42764C7.2627 4.38213 8.7183 0.995939 11.3001 0.995939ZM11.9206 13.1617C11.2735 12.8455 10.5647 12.6755 9.84448 12.6638C8.17436 12.6638 8.09009 13.7133 8.09009 13.9815C8.09009 15.4217 11.8517 15.981 11.8517 19.3442C11.8517 22.0026 10.1662 23.7187 7.89091 23.7187C7.1222 23.7378 6.35797 23.5964 5.64697 23.3036C4.93598 23.0107 4.29386 22.5729 3.76159 22.0179L4.52769 19.6047C4.52769 19.6047 5.92967 20.8228 7.14012 20.8228C7.28481 20.828 7.42904 20.8038 7.56414 20.7517C7.69923 20.6997 7.82239 20.6208 7.92619 20.5199C8.02998 20.4189 8.11227 20.298 8.16809 20.1645C8.22391 20.0309 8.2521 19.8874 8.25097 19.7426C8.25097 17.858 5.18654 17.7737 5.18654 14.6786C5.18654 12.0739 7.04819 9.55336 10.8251 9.55336C11.5739 9.51426 12.3208 9.65892 13.0008 9.97472L11.9206 13.1617ZM13.3532 1.831C14.1194 1.93059 14.6786 2.8346 15.0234 3.8765L13.675 4.2902V3.96844C13.6872 3.24304 13.5784 2.52068 13.3532 1.831Z" fill="#919FAB"/>
</svg>
