<svg width="100" height="24" viewBox="0 0 100 24" fill="none" xmlns="http://www.w3.org/2000/svg">
<path d="M93.014 3.18565C93.8438 3.18565 94.5126 2.51604 94.5126 1.6877C94.5126 0.859308 93.8438 0.189759 93.014 0.189759C92.1883 0.189759 91.518 0.859308 91.518 1.6877C91.518 2.51604 92.1883 3.18565 93.014 3.18565ZM93.0272 0.41615C93.7277 0.41615 94.2964 0.98369 94.2964 1.6877C94.2964 2.39051 93.7277 2.9592 93.0272 2.9592C92.3261 2.9592 91.7571 2.39051 91.7571 1.6877C91.7571 0.98369 92.3261 0.41615 93.0272 0.41615ZM92.6238 1.79831H93.1058C93.1926 1.79831 93.2557 1.80806 93.2941 1.82929C93.3692 1.86225 93.4065 1.93015 93.4097 2.03481L93.4226 2.29308C93.4258 2.35466 93.4288 2.39653 93.4317 2.41746C93.4387 2.43839 93.4434 2.45674 93.4513 2.47051H93.7104V2.43352C93.6766 2.4186 93.6537 2.38793 93.6429 2.33867C93.6347 2.30914 93.6279 2.26499 93.625 2.20478L93.6188 1.99523C93.6151 1.90441 93.5977 1.84017 93.5672 1.79831C93.5382 1.75651 93.4898 1.72584 93.4288 1.70087C93.4998 1.66419 93.554 1.61601 93.5913 1.55839C93.6312 1.4968 93.6508 1.42168 93.6508 1.32713C93.6508 1.14596 93.5772 1.02411 93.4288 0.959093C93.3522 0.9221 93.2536 0.904899 93.1366 0.904899H92.4127V2.47051H92.6238V1.79831ZM92.6238 1.08805H93.1398C93.2135 1.08805 93.2713 1.09779 93.3149 1.11902C93.395 1.16088 93.4355 1.23709 93.4355 1.34776C93.4317 1.45265 93.4065 1.5226 93.3484 1.56332C93.2906 1.6017 93.2102 1.62232 93.112 1.62232H92.6238V1.08805ZM27.1861 11.8334C27.0767 11.6706 27.1298 11.4467 27.2391 11.3066L33.132 4.143C33.4887 3.76636 33.733 3.28537 33.897 2.80155C34.0495 2.14054 33.8648 1.43659 33.4485 0.930704C33.0287 0.429623 32.3523 0.0997226 31.7369 0.246176C30.7947 0.310413 30.221 1.25056 29.6842 1.93135L26.0014 6.80296C25.5708 7.40491 25.1495 7.93035 24.6593 8.46204C24.3924 8.57151 24.1562 8.39925 24.0277 8.19715L18.974 1.45752L18.2907 0.668403C17.7682 0.21785 16.9871 0.0865481 16.4486 0.273425C15.6852 0.422468 15.2447 1.10068 15.0809 1.79946L15.066 10.4621C15.1451 11.0578 14.9345 11.5451 14.7109 12.0177C14.1535 13.0579 12.9221 13.5194 11.8433 13.4122C10.8307 13.256 9.75032 12.3857 9.55454 11.3582V2.27473C9.4838 1.91644 9.45481 1.53349 9.29098 1.22103C8.91157 0.513346 8.17225 0.158786 7.44864 0.167385C6.74625 0.258509 6.08729 0.672132 5.78992 1.32568C5.73363 1.47443 5.68075 1.62004 5.63252 1.77371V10.3045C5.63547 11.23 5.77404 12.1052 6.07923 12.9126C6.78648 15.0999 9.0226 16.6125 11.1843 16.994C13.5472 17.4348 16.0322 16.6064 17.6333 14.5974C18.9866 12.7685 18.8163 10.269 18.8163 7.85523L18.895 7.75057C19.7357 8.61565 20.4335 9.64241 21.2114 10.594C21.4266 10.9446 21.8351 11.2214 21.7899 11.7016C20.9799 12.8289 20.0525 13.9465 19.2116 15.0185L15.3958 19.7314C15.0935 20.2335 14.9488 20.9682 15.2109 21.5492C15.5934 22.2583 16.3491 22.7519 17.1849 22.7345C17.9191 22.7075 18.4869 22.011 18.9223 21.4965L23.0261 16.3368L24.1065 14.9915C24.2269 14.8104 24.4262 14.7035 24.6319 14.7554C25.4517 15.5798 26.0367 16.5277 26.7906 17.4409L30.3685 22.1279C30.6824 22.5561 31.24 22.7728 31.7897 22.8663C32.5756 22.9376 33.1866 22.5215 33.6075 21.8914C33.9774 21.325 33.8841 20.4035 33.553 19.8632L27.1861 11.8334ZM12.7901 18.9795L4.29017 18.9683C3.84828 19.0065 3.86416 18.706 3.79012 18.5472V2.56392C3.78056 2.08641 3.70032 1.63321 3.50112 1.24569C3.10223 0.567541 2.39821 0.0865481 1.55274 0.220434C0.832723 0.337358 0.258687 0.842106 0.0274844 1.53638L0 21.1L0.106156 21.4707C0.27944 22.0491 0.937017 22.5943 1.55274 22.7087L12.7901 22.7075C13.3093 22.5756 13.7689 22.2988 14.0777 21.8126C14.3752 21.3574 14.396 20.6015 14.1581 20.1275C13.8881 19.5677 13.3157 19.1503 12.7901 18.9795ZM69.9604 5.91557C68.8644 5.91557 67.939 6.65019 67.939 7.55486L67.958 21.4076C67.958 22.3136 68.8454 23.0457 69.9433 23.0457C71.0392 23.0457 71.9298 22.3136 71.9298 21.4076L71.9476 7.55486C71.9476 6.65019 71.0574 5.91557 69.9604 5.91557ZM98.5533 0.720009C97.5859 0.520804 96.8097 1.03416 96.2644 1.64181C94.93 3.2986 93.686 5.03563 92.474 6.74998L87.8707 13.0972C86.3788 15.1257 84.8326 17.303 83.3167 19.3375C82.833 19.3435 82.373 19.1925 81.9744 19.0469C79.242 18.0944 76.9595 15.3754 76.8437 12.4646C76.5063 9.70773 77.7759 7.29887 79.8947 5.67047C80.6503 5.14106 81.486 4.63433 82.4469 4.45942C84.135 3.8306 86.2025 4.22558 87.817 4.82866C88.2532 4.94444 88.87 5.07628 89.2916 4.72401C89.9055 4.56149 90.2657 3.87102 90.4212 3.30004C90.5905 2.35581 90.0358 1.49566 89.3435 1.0611C86.0221 -0.545229 81.4651 -0.215266 78.3691 1.69486C74.5067 3.94235 72.0922 8.32045 72.6065 12.9914C73.0007 17.5269 76.6319 21.7796 81.0281 23.0236C82.5514 23.2796 84.688 24.2201 85.9482 22.7345C89.2399 18.2779 92.3038 13.6782 95.686 9.22505L95.8174 9.19925C95.8303 9.23366 95.9042 9.27437 95.9494 9.33224L95.959 21.708C95.959 22.6137 96.9042 23.3487 98.0004 23.3487C99.0971 23.3487 99.9868 22.6137 99.9868 21.708L100 2.089C99.7765 1.44291 99.1766 0.870197 98.5533 0.720009ZM70.4752 0.404963V0.37808H52.9945C52.6716 0.434497 52.1512 0.657519 51.8957 0.801389C51.3463 1.31107 51.0447 2.03595 51.2374 2.80155C51.3275 3.50322 51.8423 4.24765 52.6941 4.36944C52.739 4.36716 53.0476 4.37462 55.2385 4.37462C55.3529 4.39296 55.5744 4.45942 55.594 4.69682L55.7096 21.3869C55.7096 22.2927 56.4987 23.0236 57.5966 23.0236C58.6922 23.0236 59.5478 22.2927 59.5478 21.3869L59.5801 4.90746L59.6329 4.67102C59.7075 4.5159 59.8122 4.46291 59.9738 4.38063H62.0268C62.1492 4.42995 62.419 4.54315 62.3964 4.87281L62.3914 21.4016C62.3914 22.3048 63.282 23.0397 64.3785 23.0397C65.4743 23.0397 66.3652 22.3048 66.3652 21.4016L66.3699 4.69682C66.4166 4.56781 66.5465 4.43597 66.6847 4.37949L69.6324 4.38063C70.4206 4.37805 71.256 4.16766 71.7115 3.53618C72.0732 3.06126 72.1788 2.37674 72.0278 1.77371C71.7576 1.11271 71.1516 0.526819 70.4752 0.404963ZM42.5386 0C36.1041 0 30.8848 5.21877 30.8848 11.6609C30.8848 18.1007 36.1041 23.3206 42.5386 23.3206C48.9744 23.3206 54.1925 18.1007 54.1925 11.6609C54.1925 5.21877 48.9744 0 42.5386 0ZM42.5046 19.447C38.2082 19.447 34.7234 15.9601 34.7234 11.6609C34.7234 7.36046 38.2082 3.87474 42.5046 3.87474C46.8028 3.87474 50.2864 7.36046 50.2864 11.6609C50.2864 15.9601 46.8028 19.447 42.5046 19.447Z" fill="#919FAB"/>
</svg>
