<svg width="100" height="23" viewBox="0 0 100 23" fill="none" xmlns="http://www.w3.org/2000/svg">
<g clip-path="url(#clip0_3341_13882)">
<path d="M6.54232 3.56979C7.83203 3.56979 9.12294 3.56979 10.4127 3.56979C10.4523 3.56979 10.4932 3.56979 10.5328 3.56979C10.7372 3.57219 10.8149 3.67035 10.766 3.86427C10.0665 6.67206 9.36694 9.47986 8.6686 12.2877C8.14214 14.4019 7.61447 16.515 7.09523 18.6304C7.05676 18.7867 6.98344 18.8684 6.85243 18.9393C4.64081 20.1341 2.4316 21.3312 0.221179 22.5284C0.186322 22.5476 0.152667 22.5705 0.115406 22.5849C0.0805489 22.5981 0.0432879 22.6029 0.00722894 22.6101C0.00482501 22.5729 -0.00599269 22.5332 0.00242107 22.4984C0.0913666 22.1414 0.18512 21.7856 0.275267 21.4298C1.08659 18.2398 1.89912 15.0498 2.70805 11.8585C3.18403 9.97987 3.65279 8.0988 4.12997 6.22012C4.17805 6.03262 4.16243 5.88838 4.02661 5.73333C3.48692 5.11672 2.96166 4.48929 2.4316 3.86427C2.37991 3.80297 2.33063 3.74047 2.28135 3.67796C2.22005 3.59863 2.26693 3.57459 2.34025 3.57099C2.41958 3.56738 2.50011 3.56738 2.58064 3.56738C3.9004 3.56738 5.22136 3.56738 6.54112 3.56738L6.54232 3.56979Z" fill="#919FAB"/>
<path d="M20.1257 0.159748C20.038 0.516732 19.9526 0.874918 19.8613 1.2307C19.2435 3.65987 18.6233 6.08905 18.0091 8.51822C17.9574 8.72376 17.8612 8.85598 17.6653 8.96055C15.4741 10.1313 13.2901 11.3128 11.1026 12.4907C11.0184 12.5352 10.9259 12.564 10.8381 12.6001C10.8526 12.5039 10.8586 12.4066 10.8826 12.314C11.7228 9.09036 12.563 5.86789 13.4115 2.64662C13.4608 2.46031 13.4464 2.33891 13.3178 2.19107C12.7985 1.5973 12.2937 0.990306 11.7841 0.388121C11.7516 0.349658 11.7144 0.314801 11.6891 0.272732C11.641 0.192201 11.6002 0.106861 11.5569 0.0239254C11.6447 0.0155116 11.7312 0.00108803 11.8189 0.00108803C14.4885 -0.000113935 17.1593 -0.000113935 19.83 -0.000113935C19.8805 -0.000113935 19.9298 0.00108803 19.9803 -0.000113935C20.0897 -0.00251787 20.1618 0.0275313 20.1257 0.159748Z" fill="#919FAB"/>
<path d="M38.9354 6.26831C41.129 6.26831 43.3226 6.26831 45.5174 6.26831C45.5967 6.26831 45.676 6.26831 45.7554 6.26831C46.1027 6.27312 46.1075 6.27432 46.0234 6.61087C45.8972 7.12291 45.7554 7.63134 45.64 8.14578C45.5907 8.36574 45.4933 8.44267 45.265 8.43906C44.4584 8.42584 43.6531 8.43305 42.8466 8.43425C42.4812 8.43425 42.4812 8.43666 42.3947 8.77802C41.8369 10.9764 41.2804 13.1748 40.7227 15.3732C40.629 15.7446 40.629 15.747 40.2612 15.747C39.6133 15.7482 38.9654 15.7494 38.3188 15.747C37.9474 15.7458 37.9426 15.741 38.0351 15.3768C38.5147 13.4849 38.9967 11.593 39.4775 9.70113C39.5616 9.36938 39.6494 9.03764 39.7299 8.70349C39.7912 8.44988 39.784 8.44026 39.5135 8.43546C39.1566 8.42945 38.7996 8.43425 38.4426 8.43425C36.6192 8.43425 34.7946 8.43185 32.9712 8.43546C32.5686 8.43546 32.6058 8.35252 32.4796 8.82369C32.4075 9.09053 32.345 9.36097 32.2801 9.63021C32.2104 9.92229 32.2116 9.9283 32.5277 9.9283C33.559 9.9307 34.5891 9.92469 35.6204 9.93311C35.8415 9.93551 36.0699 9.96436 36.2839 10.0221C36.7983 10.1603 37.0543 10.5485 36.9365 11.0726C36.7226 12.0245 36.4738 12.9681 36.2394 13.9152C36.1985 14.0811 36.1553 14.247 36.1156 14.414C35.9437 15.1352 35.4701 15.5463 34.7658 15.7001C34.523 15.753 34.2682 15.7759 34.0194 15.7759C32.2224 15.7831 30.4267 15.7807 28.6297 15.7807C28.292 15.7807 28.2872 15.7759 28.3653 15.4573C28.4939 14.9321 28.6394 14.4104 28.7584 13.884C28.8124 13.646 28.929 13.5811 29.167 13.5835C30.5938 13.5943 32.0217 13.5895 33.4484 13.5883C33.8102 13.5883 33.8102 13.5859 33.8956 13.2493C33.9641 12.9813 34.0314 12.7121 34.0975 12.444C34.1852 12.093 34.1816 12.0834 33.8282 12.0822C32.7837 12.0798 31.7404 12.0906 30.6959 12.0738C30.4387 12.0702 30.1731 12.0089 29.9291 11.9224C29.5973 11.8046 29.4339 11.5353 29.4447 11.1807C29.4507 10.998 29.4783 10.8129 29.5216 10.6351C29.7644 9.64944 30.0156 8.66503 30.2644 7.68062C30.4748 6.85006 31.0193 6.37889 31.8799 6.28874C32.0638 6.26951 32.2489 6.26951 32.434 6.26951C34.6011 6.26831 36.7683 6.26951 38.9366 6.26951L38.9354 6.26831Z" fill="#919FAB"/>
<path d="M95.9301 11.8599C95.858 11.938 95.7679 12.0065 95.7162 12.0967C95.3027 12.8179 94.8904 13.539 94.4926 14.2686C94.3844 14.4682 94.2582 14.5487 94.0262 14.5427C93.3399 14.5271 92.6524 14.5379 91.9648 14.5367C91.6587 14.5367 91.4981 14.376 91.4828 14.0547C91.4492 13.3563 91.4155 12.6568 91.3795 11.9585C91.3771 11.9008 91.3578 11.8443 91.347 11.7866C91.3182 11.8431 91.2773 11.8972 91.2617 11.9573C90.9864 13.0294 90.7184 14.1052 90.4383 15.1761C90.252 15.8865 90.4179 15.7675 89.6787 15.7771C89.1114 15.7855 88.5428 15.7795 87.9743 15.7771C87.6125 15.7759 87.6053 15.7699 87.693 15.4249C87.9959 14.223 88.3036 13.0222 88.6089 11.8214C89.0513 10.0834 89.4996 8.34654 89.9287 6.6049C89.99 6.35489 90.0753 6.25512 90.3422 6.25993C91.2268 6.27556 92.1127 6.26354 92.9985 6.26714C93.3399 6.26714 93.3387 6.27315 93.3603 6.62533C93.4493 8.11456 93.5394 9.6026 93.6295 11.0918C93.6332 11.1579 93.6332 11.2241 93.644 11.289C93.6524 11.3382 93.6752 11.3839 93.6921 11.432C93.7365 11.3959 93.7954 11.3671 93.8219 11.3214C94.3099 10.4752 94.7931 9.62784 95.2787 8.78045C95.7114 8.02442 96.1513 7.27199 96.5768 6.51234C96.6705 6.34527 96.7703 6.26113 96.9734 6.26354C97.8977 6.27315 98.8232 6.26594 99.7488 6.26955C100.029 6.26955 100.032 6.27796 99.9639 6.55201C99.2115 9.53048 98.4554 12.509 97.7066 15.4886C97.6537 15.6978 97.578 15.7951 97.3388 15.7891C96.6393 15.7711 95.9385 15.7843 95.239 15.7807C94.9517 15.7795 94.9469 15.7723 95.0154 15.4982C95.2979 14.3732 95.5851 13.2482 95.8688 12.1231C95.8917 12.0342 95.9061 11.9428 95.9241 11.8515C95.9241 11.8407 95.9265 11.8286 95.9277 11.8178C95.9277 11.8094 95.9301 11.801 95.9313 11.7914V11.8611L95.9301 11.8599Z" fill="#919FAB"/>
<path d="M73.8716 6.26836C74.7034 6.26836 75.5363 6.26596 76.3681 6.26956C76.5652 6.26956 76.7671 6.26957 76.9607 6.30202C77.6927 6.42462 77.9811 6.85132 77.8177 7.5725C77.7131 8.03525 77.5893 8.4932 77.4727 8.95356C77.0352 10.6784 76.5977 12.4032 76.1602 14.1268C76.1313 14.2422 76.1049 14.3576 76.0736 14.4718C75.8837 15.1701 75.4041 15.5584 74.719 15.7038C74.463 15.7579 74.1949 15.7759 73.9329 15.7771C72.2826 15.7843 70.6323 15.7879 68.982 15.7771C68.6827 15.7747 68.3738 15.7314 68.0877 15.6473C67.6598 15.5223 67.4916 15.2615 67.4952 14.8216C67.4964 14.6641 67.5156 14.5042 67.5541 14.3516C68.1142 12.1412 68.6959 9.93556 69.232 7.71914C69.4267 6.91382 69.9941 6.32486 70.9809 6.2888C71.9437 6.25394 72.9088 6.28158 73.8728 6.28158C73.8728 6.27798 73.8728 6.27317 73.8728 6.26956L73.8716 6.26836ZM72.023 13.5883C72.4845 13.5883 72.9473 13.5787 73.4089 13.5931C73.612 13.5992 73.7166 13.5379 73.767 13.3347C74.1517 11.7866 74.5447 10.2421 74.9317 8.69513C74.9942 8.44633 74.987 8.43671 74.7118 8.43551C73.7743 8.4319 72.8367 8.44152 71.9004 8.4283C71.6876 8.42469 71.6275 8.52686 71.5867 8.69393C71.1984 10.2397 70.809 11.7854 70.422 13.3311C70.3607 13.5763 70.3667 13.5847 70.6371 13.5871C71.0987 13.5919 71.5614 13.5883 72.023 13.5883Z" fill="#919FAB"/>
<path d="M83.5102 6.26826C84.4477 6.26826 85.3852 6.26105 86.3228 6.27307C86.5968 6.27667 86.8793 6.30191 87.1413 6.37764C87.562 6.49904 87.8012 6.80914 87.8204 7.25147C87.8313 7.49907 87.8252 7.7575 87.7663 7.99669C87.4875 9.14937 87.1978 10.2997 86.8949 11.4451C86.6714 12.2901 86.2062 12.9223 85.2963 13.1207C85.1485 13.1531 85.116 13.224 85.1701 13.3767C85.4093 14.0462 85.6329 14.7217 85.8624 15.3948C85.8877 15.4693 85.9045 15.5474 85.9369 15.6196C85.9946 15.7506 85.9321 15.783 85.8168 15.783C85.6713 15.783 85.5259 15.783 85.3816 15.783C84.8011 15.783 84.2193 15.7746 83.6388 15.7854C83.4489 15.789 83.3587 15.7253 83.2986 15.5438C83.0679 14.8431 82.8154 14.1508 82.5847 13.45C82.521 13.2577 82.4284 13.1784 82.2205 13.188C81.8911 13.2036 81.5606 13.1988 81.23 13.1904C81.0413 13.1856 80.9572 13.2457 80.9115 13.4452C80.7517 14.1387 80.5545 14.8239 80.3935 15.5162C80.3442 15.7277 80.2541 15.789 80.0461 15.7866C79.3466 15.7758 78.647 15.7866 77.9475 15.7818C77.647 15.7806 77.6398 15.7698 77.7191 15.4561C78.016 14.2806 78.3165 13.1062 78.6158 11.9319C79.0605 10.1819 79.504 8.4318 79.9488 6.68174C80.0533 6.27066 80.0557 6.27066 80.4596 6.27066C81.4765 6.27066 82.4933 6.27066 83.5102 6.27066V6.26826ZM82.7734 11.0256C83.1159 11.0256 83.4597 11.0292 83.8023 11.0256C84.1436 11.0208 84.3888 10.8622 84.4838 10.5316C84.6292 10.0256 84.7734 9.51838 84.8816 9.00273C84.9694 8.58325 84.842 8.44502 84.4105 8.43781C83.7638 8.42699 83.1171 8.44262 82.4705 8.4306C82.2601 8.42699 82.1664 8.49911 82.1171 8.70104C81.95 9.39217 81.7733 10.0797 81.5906 10.7672C81.5402 10.9571 81.5774 11.0353 81.7854 11.0292C82.1147 11.0196 82.4452 11.0268 82.7746 11.0268L82.7734 11.0256Z" fill="#919FAB"/>
<path d="M62.0996 10.2936C62.6152 10.2936 63.1297 10.2972 63.6453 10.2924C64.0287 10.2888 63.9963 10.3489 64.1069 9.91742C64.3929 8.80681 64.6826 7.69619 64.9518 6.58197C65.0083 6.34638 65.0913 6.25623 65.3413 6.26224C66.0276 6.27907 66.7151 6.26585 67.4015 6.26946C67.714 6.27066 67.7152 6.27787 67.6382 6.57956C66.9219 9.40298 66.2055 12.2264 65.4867 15.0498C65.4254 15.289 65.405 15.5991 65.2451 15.7325C65.1009 15.8527 64.792 15.7794 64.5552 15.7818C64.0275 15.7854 63.4987 15.7842 62.971 15.7818C62.62 15.7818 62.6176 15.7782 62.7054 15.4284C62.9193 14.5847 63.1345 13.7409 63.3532 12.8983C63.4686 12.4512 63.4722 12.4512 63.0035 12.4512C61.9602 12.4512 60.9168 12.4584 59.8735 12.4464C59.6319 12.444 59.5346 12.5113 59.4769 12.7589C59.2702 13.6447 59.0322 14.5222 58.8062 15.4032C58.71 15.7782 58.7112 15.7806 58.3482 15.7806C57.6884 15.7806 57.0273 15.783 56.3674 15.7806C56.0272 15.7794 56.0248 15.7746 56.1066 15.4525C56.6895 13.1531 57.2737 10.8526 57.859 8.55319C58.0309 7.87648 58.2136 7.20098 58.3735 6.52067C58.4192 6.32835 58.5009 6.26345 58.6932 6.26585C59.406 6.27426 60.1199 6.26585 60.8327 6.27066C61.12 6.27186 61.1224 6.28027 61.0515 6.56153C60.769 7.68657 60.4829 8.81161 60.2005 9.93786C60.1151 10.2792 60.1175 10.2828 60.4721 10.284C61.013 10.2864 61.5551 10.284 62.096 10.284C62.096 10.2876 62.096 10.29 62.096 10.2936H62.0996Z" fill="#919FAB"/>
<path d="M52.1004 6.26816C53.0512 6.26816 54.0031 6.26456 54.9539 6.27057C55.163 6.27177 55.3758 6.2898 55.5825 6.32586C56.2328 6.43764 56.5513 6.91121 56.4624 7.60235C56.3986 8.09635 56.2604 8.58315 56.1426 9.06874C55.978 9.74786 55.8013 10.4246 55.6282 11.1013C55.5861 11.2671 55.5392 11.433 55.4864 11.5953C55.1306 12.6734 54.4443 13.1807 53.3024 13.1891C52.2591 13.1975 51.2146 13.1915 50.1713 13.1915C49.6196 13.1915 49.6148 13.1915 49.4777 13.7252C49.3263 14.3117 49.1784 14.9007 49.039 15.4909C48.9897 15.7 48.9056 15.7937 48.6652 15.7877C47.9657 15.7685 47.2649 15.7841 46.5654 15.7817C46.2841 15.7817 46.2781 15.7733 46.3466 15.5017C46.7168 14.0317 47.0894 12.5617 47.4608 11.0917C47.8358 9.60843 48.2109 8.1252 48.5859 6.64197C48.6484 6.39437 48.8154 6.27017 49.0871 6.26936C50.0907 6.26936 51.0956 6.26936 52.0992 6.26936L52.1004 6.26816ZM51.3804 11.0255C51.7098 11.0255 52.0403 11.0328 52.3697 11.0243C52.8276 11.0123 53.0223 10.8813 53.1521 10.4438C53.294 9.96421 53.4106 9.47741 53.5175 8.98942C53.5993 8.61921 53.4851 8.45454 53.1077 8.44372C52.4093 8.42329 51.7098 8.43771 51.0102 8.43411C50.8648 8.43411 50.8047 8.49541 50.771 8.63483C50.5932 9.36443 50.4093 10.0916 50.2193 10.8176C50.1761 10.9847 50.2362 11.0304 50.3912 11.028C50.7206 11.0231 51.0511 11.0267 51.3804 11.028V11.0255Z" fill="#919FAB"/>
<path d="M27.3339 6.24892C27.8628 6.24892 28.3904 6.24531 28.9193 6.24892C29.2102 6.25132 29.2138 6.25853 29.1465 6.52297C28.3941 9.50144 27.6392 12.4787 26.8928 15.4584C26.8375 15.6771 26.751 15.7565 26.5202 15.7517C25.8471 15.736 25.1728 15.7481 24.4985 15.7457C24.1451 15.7445 24.1391 15.7396 24.2244 15.4043C24.6595 13.6783 25.0983 11.9534 25.5358 10.2286C25.6584 9.74303 25.7834 9.25744 25.9036 8.77064C25.9901 8.42327 25.9877 8.42207 25.6115 8.41967C25.4132 8.41967 25.2149 8.41606 25.0165 8.41967C24.8939 8.42207 24.8507 8.37399 24.8819 8.2526C25.037 7.65281 25.1956 7.05423 25.3411 6.45205C25.3867 6.26094 25.5117 6.24771 25.6668 6.24771C26.2221 6.25012 26.7762 6.24771 27.3315 6.24771L27.3339 6.24892Z" fill="#919FAB"/>
</g>
<defs>
<clipPath id="clip0_3341_13882">
<rect width="100" height="22.6114" fill="white"/>
</clipPath>
</defs>
</svg>
