<svg width="100" height="18" viewBox="0 0 100 18" fill="none" xmlns="http://www.w3.org/2000/svg">
<path d="M83.9427 0.101758C84.2611 0.101758 84.5542 0.101758 84.8472 0.101758C86.9843 0.101761 89.1215 0.100353 91.2586 0.102074C95.345 0.105364 98.7328 2.74218 99.7323 6.69533C100.904 11.3285 98.1214 16.1502 93.5174 17.3944C92.7501 17.6018 91.931 17.6915 91.1339 17.7036C88.8701 17.7379 86.6054 17.7042 84.341 17.6959C84.217 17.6955 84.0929 17.6825 83.9427 17.6738C83.9427 11.8204 83.9427 5.98946 83.9427 0.101758ZM87.3941 13.864C88.7902 13.864 90.1464 13.8875 91.5015 13.8589C93.9846 13.8064 96.031 11.8639 96.291 9.34855C96.5456 6.88577 94.9517 4.51395 92.4998 4.11428C90.8577 3.84662 89.1492 3.984 87.4703 3.94265C87.4489 3.94213 87.4268 3.97481 87.3941 4.00054C87.3941 7.2604 87.3941 10.5285 87.3941 13.864Z" fill="#919FAB"/>
<path d="M40.7023 0.0333127C43.8256 2.39407 46.907 4.72315 50.0087 7.0676C53.044 4.72539 56.0684 2.39153 59.1479 0.0152119C59.1479 5.97226 59.1479 11.8539 59.1479 17.7638C58.0194 17.7638 56.8948 17.7638 55.7197 17.7638C55.7197 14.2416 55.7197 10.7146 55.7197 7.09674C53.736 8.54864 51.8282 9.94498 49.9118 11.3476C48.0145 9.93127 46.1388 8.53093 44.199 7.0828C44.199 10.6753 44.199 14.2008 44.199 17.7591C43.0125 17.7591 41.8744 17.7591 40.7023 17.7591C40.7023 11.8848 40.7023 5.9989 40.7023 0.0333127Z" fill="#919FAB"/>
<path d="M3.56468 7.71039C3.56468 9.45829 3.56468 11.1054 3.56468 12.7526C3.56468 14.3857 3.56468 16.0188 3.56468 17.6796C2.37097 17.6796 1.20437 17.6796 0 17.6796C0 11.8566 0 6.03132 0 0.112086C4.08428 3.51507 8.12476 6.88156 12.2315 10.3032C12.2315 6.86581 12.2315 3.51912 12.2315 0.1372C13.46 0.1372 14.6527 0.1372 15.8819 0.1372C15.8819 5.95404 15.8819 11.7758 15.8819 17.6962C11.7633 14.3572 7.70422 11.0664 3.56468 7.71039Z" fill="#919FAB"/>
<path d="M37.1482 8.92781C37.131 13.8077 33.2009 17.7762 28.2719 17.7651C23.0679 17.7535 19.325 13.5731 19.3597 8.79131C19.3952 3.88674 23.419 -0.0294304 28.4953 0.0512876C33.2886 0.127504 37.1573 4.05758 37.1482 8.92781ZM28.259 3.36597C25.209 3.3638 22.712 5.85887 22.7117 8.90888C22.7115 11.9434 25.1854 14.4137 28.233 14.4222C31.2879 14.4307 33.7971 11.9671 33.8009 8.95542C33.8048 5.86006 31.3341 3.36815 28.259 3.36597Z" fill="#919FAB"/>
<path d="M80.6137 17.7916C79.3268 17.7916 78.1139 17.7983 76.9013 17.7802C76.7924 17.7786 76.6402 17.6387 76.5849 17.5257C75.1637 14.6196 73.7529 11.7085 72.3396 8.79857C72.1123 8.33058 71.8812 7.86439 71.617 7.32622C71.5226 7.49828 71.4494 7.62185 71.3853 7.74996C69.7613 10.9962 68.1399 14.2437 66.5089 17.4864C66.4461 17.6113 66.2941 17.7763 66.1809 17.7784C65.0222 17.8 63.8628 17.7916 62.6132 17.7916C65.5974 11.8442 68.5549 5.95009 71.5405 0C74.5693 5.93917 77.5711 11.8253 80.6137 17.7916Z" fill="#919FAB"/>
</svg>
