<svg width="100" height="26" viewBox="0 0 100 26" fill="none" xmlns="http://www.w3.org/2000/svg">
<g clip-path="url(#clip0_3341_13901)">
<path d="M0 12.801C0.0761685 12.5979 0.219273 12.3948 0.221581 12.1894C0.258511 9.04801 2.90825 5.98281 5.89036 5.1865C7.88229 4.65563 9.89498 4.7318 11.6653 5.73584C13.9342 7.02378 15.453 8.93953 15.9215 11.6424C16.3047 13.8512 15.8684 15.7993 14.6359 17.595C13.251 19.61 11.3814 20.8334 8.85401 21.0549C5.588 21.3411 3.12983 20.0578 1.36411 17.415C0.687825 16.4017 0.30929 15.2292 0.230814 13.9851C0.21004 13.6643 0.0807848 13.3481 0.00230814 13.0319C0.00230814 12.9557 0.00230814 12.8795 0.00230814 12.8033L0 12.801ZM8.03001 18.0821C10.3681 18.3198 13.1218 15.9563 13.1218 12.9672C13.1218 10.2621 10.8736 8.07859 8.18003 7.94703C5.72187 7.82701 3.00981 10.1167 3.01212 13.0065C3.01212 15.9632 5.79573 18.3244 8.03001 18.0821Z" fill="#919FAB"/>
<path d="M27.4206 7.34906C27.4206 5.29021 27.4206 3.23135 27.4206 1.17249C27.4206 0.943986 27.4113 0.713172 27.4321 0.486975C27.4736 0.0622776 27.6375 -0.0369723 28.0461 0.0968996C29.4263 0.546986 30.3357 1.78646 30.375 3.30521C30.3981 4.1823 30.3796 5.05939 30.3911 5.93648C30.3957 6.26655 30.5712 6.30579 30.8458 6.17653C31.5337 5.8557 32.2007 5.45178 32.9255 5.24635C35.2751 4.57699 37.5325 4.81011 39.6052 6.17653C42.2688 7.93302 43.4529 10.4881 43.2451 13.5787C43.0005 17.2487 40.3023 20.2238 36.6554 20.9763C33.5787 21.611 30.3103 20.2469 28.6785 17.6226C27.8868 16.3485 27.4136 14.9451 27.4182 13.4148C27.4229 11.3952 27.4182 9.3733 27.4182 7.35368L27.4206 7.34906ZM40.3184 13.0963C40.4223 9.88571 37.7772 7.73914 35.3121 7.81992C32.4869 7.91225 30.4257 10.1811 30.405 12.884C30.3819 15.9122 32.8424 17.9965 35.4598 18.0496C37.8626 18.0981 40.323 15.8476 40.3161 13.0963H40.3184Z" fill="#919FAB"/>
<path d="M77.1724 5.0226C78.4096 4.89104 79.7114 5.29265 80.9301 5.99664C82.7512 7.04684 83.8129 8.66946 84.4292 10.6221C84.5816 11.1068 84.2815 11.3192 83.903 11.4877C82.7512 12.0001 81.5971 12.5102 80.4477 13.0295C78.218 14.0382 75.9884 15.0468 73.7656 16.0716C73.2671 16.3025 73.2555 16.434 73.6548 16.7849C74.7627 17.7635 76.8355 18.5598 78.6727 17.6758C79.7714 17.1449 80.7408 16.5148 81.274 15.3792C81.484 14.9314 81.851 14.6798 82.2826 14.4975C83.0559 14.1697 83.8406 13.8651 84.6023 13.5142C85.0316 13.3157 84.9578 13.6273 84.9324 13.8143C84.4292 17.4796 81.9549 20.1963 78.5596 20.8864C76.3 21.3457 74.1926 20.9464 72.2676 19.5339C70.0403 17.8997 69.0178 15.6054 69.0016 13.048C68.9832 9.85353 70.4419 7.26842 73.4286 5.73582C74.6081 5.13108 75.2036 5.02029 77.1724 5.02491V5.0226ZM76.8862 7.74851C75.8268 7.78544 74.9936 8.18475 74.2042 8.65561C72.6162 9.60425 72.0207 11.1345 71.8706 12.8749C71.836 13.2811 72.1961 13.4981 72.5585 13.3319C75.0997 12.1778 77.6387 11.0168 80.1776 9.85584C80.5954 9.66426 80.6393 9.50962 80.3184 9.19802C79.3375 8.24707 78.1026 7.89623 76.8862 7.7462V7.74851Z" fill="#919FAB"/>
<path d="M57.1263 10.4189C57.1263 7.93993 57.1171 5.4633 57.1309 2.98436C57.1378 1.61564 57.8972 0.574667 59.1782 0.11304C59.8476 -0.129315 60.0807 0.0184061 60.083 0.761626C60.0946 3.506 60.0876 6.25037 60.09 8.99706C60.09 9.30173 60.0807 9.60871 60.1176 9.91108C60.1592 10.2319 60.4339 10.3589 60.7062 10.1881C60.8978 10.068 61.0663 9.90646 61.2302 9.7472C61.7518 9.24172 62.2573 8.71777 62.7859 8.21921C63.8707 7.19902 64.9509 6.17651 66.0657 5.19094C66.2988 4.98552 66.6658 4.83779 66.9774 4.82625C68.0507 4.7824 69.124 4.80779 70.1996 4.81702C70.3081 4.81702 70.4142 4.87472 70.5227 4.90473C70.4766 5.00167 70.4535 5.1217 70.3796 5.19094C69.6249 5.8903 68.8424 6.56428 68.1015 7.27749C66.8343 8.4985 65.5949 9.7472 64.3369 10.9751C64.0322 11.2729 64.0484 11.5268 64.3 11.8684C65.2486 13.1563 66.1673 14.465 67.1044 15.7645C68.2631 17.371 69.431 18.9682 70.585 20.5793C70.8505 20.9509 70.8159 21.0086 70.3796 21.0178C69.6895 21.0317 68.9947 20.9763 68.3092 21.0363C67.5245 21.1055 67.0144 20.8055 66.5781 20.1754C65.6018 18.7674 64.5747 17.3941 63.5706 16.0069C63.169 15.4506 62.7789 14.8874 62.3773 14.3312C61.8141 13.5556 61.5879 13.5672 60.8355 14.2181C60.2654 14.7097 60.0484 15.2683 60.0738 16.0184C60.1246 17.4656 60.0992 18.9151 60.0807 20.3646C60.0715 21.0155 59.9538 21.0732 59.3052 20.8724C57.9665 20.4546 57.1425 19.3398 57.1309 17.8557C57.1148 15.3767 57.1263 12.9001 57.1263 10.4212V10.4189Z" fill="#919FAB"/>
<path d="M86.8343 24.4224C86.8343 24.3462 86.8297 24.27 86.8343 24.1939C86.862 23.8176 86.7812 23.3699 86.9613 23.0906C87.0975 22.8805 87.5891 22.9244 87.8892 22.7836C88.4385 22.5274 89.0132 22.2804 89.4864 21.9157C90.5043 21.1356 90.6335 20.6693 90.165 19.4622C89.1609 16.8702 88.1177 14.2943 87.0836 11.7138C86.2896 9.7334 85.4864 7.75994 84.6878 5.78187C84.4546 5.20252 84.547 5.06404 85.2186 5.04095C85.7564 5.02249 86.2988 5.08019 86.8297 5.0248C87.4945 4.95555 87.8084 5.27638 88.0253 5.83957C88.5193 7.11828 89.0409 8.38544 89.551 9.65953C90.2458 11.3906 90.9405 13.124 91.6353 14.8551C91.7068 15.0329 91.7599 15.2221 91.8638 15.3768C91.9584 15.5199 92.1107 15.7299 92.2331 15.7253C92.3739 15.7207 92.5701 15.543 92.6347 15.3929C93.0017 14.5551 93.3456 13.708 93.678 12.8586C94.4143 10.9798 95.1436 9.09866 95.8684 7.21522C96.6047 5.29947 98.0196 4.69704 99.7276 4.81245C99.9699 4.82861 100.053 4.93016 99.9492 5.17944C99.266 6.83438 98.5828 8.48931 97.918 10.1489C96.8009 12.9417 95.7507 15.7646 94.5666 18.5274C93.9388 19.9908 93.5395 21.5695 92.5539 22.8736C91.2244 24.6393 89.5141 25.7311 87.2521 25.888C86.9497 25.9088 86.8251 25.8673 86.8297 25.5626C86.8343 25.1818 86.8297 24.8009 86.8297 24.4178C86.8297 24.4178 86.8274 24.4178 86.8251 24.4178L86.8343 24.4224Z" fill="#919FAB"/>
<path d="M49.9734 9.41479C49.9734 7.2059 49.9895 4.99702 49.9665 2.79044C49.9526 1.52789 50.5827 0.720042 51.6652 0.189171C52.4315 -0.184747 52.7154 -0.0185616 52.7293 0.8216C52.7454 1.81179 52.7201 2.80198 52.7385 3.79217C52.7547 4.66003 52.8816 4.81237 53.7333 4.80313C55.1828 4.78467 55.0236 4.84699 55.0351 6.12108C55.0351 6.15801 55.0374 6.19725 55.0351 6.23418C55.0005 6.68427 55.1228 7.27746 54.8805 7.53828C54.6497 7.78756 54.0403 7.70446 53.5948 7.7437C52.9324 7.80371 52.7524 7.92374 52.7478 8.56078C52.727 10.7304 52.7062 12.9024 52.757 15.0697C52.787 16.3692 53.2856 17.4263 54.6704 17.8695C54.8251 17.9203 54.9959 18.1973 55.0051 18.3773C55.042 19.0974 55.0236 19.8222 55.0143 20.5469C55.0097 20.967 54.7374 21.0363 54.3842 20.9901C51.8707 20.6531 49.828 18.128 49.9734 16.0391C49.978 15.963 49.9734 15.8868 49.9734 15.8106C49.9734 13.6779 49.9734 11.5475 49.9734 9.41479Z" fill="#919FAB"/>
<path d="M17.5209 16.5217C17.5209 15.5707 17.5256 14.6198 17.5209 13.6688C17.5117 11.9285 17.8372 10.2597 18.7489 8.76401C20.0414 6.64515 21.8672 5.27411 24.4269 5.02253C24.7293 4.99252 25.0224 4.9025 25.3247 4.85634C25.6894 4.80094 25.9503 4.96251 25.9687 5.3272C26.001 6.01041 26.001 6.69592 25.9687 7.37913C25.9618 7.50839 25.761 7.66996 25.6133 7.74382C25.4125 7.84307 25.177 7.90077 24.9531 7.92154C22.2295 8.17082 20.4592 10.9844 20.4915 13.4288C20.5123 15.026 20.5054 16.6232 20.4915 18.2228C20.4777 19.6123 19.6767 20.614 18.3496 20.9487C17.701 21.1125 17.5625 21.0018 17.5279 20.2908C17.5233 20.2147 17.5279 20.1385 17.5279 20.0623C17.5279 18.8829 17.5279 17.7034 17.5279 16.524L17.5209 16.5217Z" fill="#919FAB"/>
<path d="M47.8916 12.9071C47.8916 15.1899 47.8916 17.4749 47.8916 19.7577C47.8916 19.9862 47.9032 20.2147 47.8847 20.4432C47.8455 20.9671 47.7277 21.0525 47.2477 20.9348C45.9228 20.6071 45.0757 19.5453 44.9326 18.022C44.9118 17.7958 44.9234 17.565 44.9234 17.3365C44.9234 13.5673 44.9234 9.80039 44.9234 6.0312C44.9234 5.80269 44.9326 5.57419 44.928 5.34568C44.9187 4.9533 45.1288 4.80327 45.4981 4.80558C46.0728 4.8102 46.6475 4.78942 47.2223 4.8102C47.827 4.83097 47.8755 4.87021 47.8847 5.48186C47.9055 6.58515 47.8916 7.68844 47.8916 8.79404C47.8916 10.1651 47.8916 11.5338 47.8916 12.9048V12.9071Z" fill="#919FAB"/>
</g>
<defs>
<clipPath id="clip0_3341_13901">
<rect width="100" height="25.8973" fill="white"/>
</clipPath>
</defs>
</svg>
