<svg width="100" height="50" viewBox="0 0 100 50" fill="none" xmlns="http://www.w3.org/2000/svg">
<path fill-rule="evenodd" clip-rule="evenodd" d="M98.0864 10.5752C97.5777 10.5752 97.0899 10.7773 96.7301 11.137C96.3704 11.4967 96.1683 11.9846 96.1683 12.4933C96.1683 13.002 96.3704 13.4899 96.7301 13.8496C97.0899 14.2093 97.5777 14.4114 98.0864 14.4114C98.3385 14.4112 98.588 14.3612 98.8207 14.2644C99.0534 14.1675 99.2647 14.0257 99.4425 13.8471C99.6202 13.6684 99.761 13.4564 99.8567 13.2232C99.9523 12.99 100.001 12.7403 100 12.4882C99.9998 11.9808 99.7982 11.4942 99.4393 11.1355C99.0805 10.7767 98.5938 10.5752 98.0864 10.5752ZM98.0864 14.1805C97.8644 14.1806 97.6446 14.1369 97.4395 14.0518C97.2344 13.9668 97.0481 13.8421 96.8914 13.6848C96.7346 13.5276 96.6105 13.3409 96.5261 13.1356C96.4417 12.9302 96.3987 12.7102 96.3995 12.4882C96.3997 12.267 96.4436 12.048 96.5285 11.8437C96.6134 11.6395 96.7377 11.4539 96.8944 11.2977C97.0511 11.1416 97.237 11.0178 97.4415 10.9335C97.6461 10.8493 97.8652 10.8062 98.0864 10.8066C98.5324 10.8066 98.9601 10.9838 99.2755 11.2992C99.5908 11.6145 99.768 12.0422 99.768 12.4882C99.7691 12.7099 99.7265 12.9296 99.6425 13.1347C99.5585 13.3398 99.4349 13.5263 99.2787 13.6836C99.1224 13.8408 98.9367 13.9656 98.7321 14.0509C98.5275 14.1362 98.3081 14.1802 98.0864 14.1805Z" fill="#919FAB"/>
<path fill-rule="evenodd" clip-rule="evenodd" d="M99.0721 11.9863C99.0721 11.8056 98.9919 11.6148 98.831 11.5245C98.6701 11.4293 98.4894 11.4192 98.3077 11.4192H97.3745V13.5631H97.6353V12.5737H98.1174L98.7294 13.5631H99.0416L98.3932 12.5737C98.7754 12.5636 99.0721 12.408 99.0721 11.9863ZM98.0373 12.368H97.6353V11.61H98.2478C98.514 11.61 98.8053 11.6501 98.8053 11.9815C98.8059 12.4182 98.3376 12.368 98.0373 12.368ZM33.8666 44.1248L21.3671 38.0213C21.0923 37.8791 20.9507 37.5156 20.956 37.2778L20.9892 33.9082C20.994 33.6709 21.041 33.4271 21.3526 33.2037C22.6889 32.3517 26.8271 30.0613 31.1021 23.822C36.7957 15.5119 31.1021 8.53016 22.2036 10.4309C14.3003 12.1189 6.25431 16.3982 2.76449 18.7249C-0.345828 20.7983 0.0860562 23.3035 0 25.5501C0.172647 26.4999 0.518475 26.4138 1.29619 25.4635C7.0844 20.1071 15.8969 16.0465 17.5384 15.3553C19.1798 14.6642 23.0679 12.3316 27.647 13.368C32.0455 14.3644 30.9765 20.3445 29.6338 22.8716C28.165 25.6361 23.9749 29.6535 22.0742 30.6471C21.3521 31.0245 21.0811 30.6471 21.0811 30.0421L21.3836 17.0396C21.3836 16.1758 20.9945 15.7867 20.1307 16.0892L18.7485 16.7803C17.7981 17.3421 17.8414 17.558 17.7548 18.2492L17.5453 33.239C17.5384 33.5624 17.3876 33.8221 17.2096 33.8986L12.7005 36.4348C11.6641 36.9533 11.9228 37.731 12.7005 37.9903L16.3293 39.7178C17.1936 40.0631 17.4528 40.3223 17.4528 41.1861L17.323 48.4437C20.5632 47.7959 20.7786 46.2404 20.8652 45.2035V43.0002C20.9512 42.4817 21.2537 42.3091 21.6856 42.3957L32.2256 47.4928C33.176 47.9252 33.6945 47.7515 34.3856 46.543C35.0762 45.3344 35.1628 44.7299 33.8666 44.1248ZM52.2864 25.8141C50.8218 26.6597 50.144 28.2424 50.7213 29.2414C51.2975 30.2409 53.04 30.4088 54.5056 29.5621C55.9713 28.716 56.6052 27.1766 56.0279 26.1776C55.4517 25.1786 53.752 24.9674 52.2864 25.8141Z" fill="#919FAB"/>
<path fill-rule="evenodd" clip-rule="evenodd" d="M46.8819 26.8895C46.4837 27.3749 45.7156 28.8555 45.2837 29.7625C44.8519 30.6691 43.9448 32.721 43.0377 32.721C42.0788 32.721 41.9575 30.3457 41.9575 29.4814C41.9575 28.6171 41.439 28.4877 41.1798 28.531C40.9205 28.5743 40.1861 28.833 39.9702 29.7406C39.7542 30.6477 38.5879 34.579 37.2917 34.579C36.4713 34.579 35.8662 32.2031 35.8234 31.4687C35.7801 30.7348 35.4343 30.1297 34.6999 30.1297C34.1814 30.1297 33.5336 30.389 33.2744 30.6915C33.0151 30.994 32.9724 31.4687 31.5896 31.1667C30.3367 31.1234 29.1271 31.7718 27.6588 34.2337C26.7747 35.7159 26.0563 38.4783 27.3995 39.59C28.6524 40.6265 30.8552 38.769 31.5035 37.9913C32.1513 37.2141 32.7131 36.6524 32.9724 36.221C33.2311 35.7886 33.4908 35.8319 33.6202 36.2638C33.7495 36.6962 34.484 38.3804 35.4348 38.3377C36.3852 38.2944 37.5948 37.56 39.0203 35.0542C39.2796 34.5357 39.6682 34.579 39.7548 35.0109C39.8414 35.4433 40.4026 36.8689 41.3529 36.8689C42.26 36.8689 43.2692 35.4278 43.7721 34.5795C44.1174 33.9964 44.6359 34.2775 44.6359 34.8388C44.6359 35.4 44.3767 48.6618 44.3767 48.6618C44.3767 49.2663 44.614 49.4389 45.0459 49.4389H46.9252C47.2705 49.4389 47.573 49.1369 47.573 48.6618L47.9616 27.1707C47.9622 26.6517 47.379 26.285 46.8819 26.8895ZM32.1952 35.3562C31.8061 36.0045 30.7696 37.7321 29.8626 37.4301C29.3874 37.1709 30.0208 35.4428 30.3378 34.8382C30.8129 33.9312 32.2059 32.4864 32.843 32.8509C33.4481 33.1962 32.5838 34.7084 32.1952 35.3562ZM98.0143 22.1067C97.8422 22.258 97.561 22.5172 96.9346 22.2361C95.8543 21.8042 95.7683 19.7741 95.207 17.9162C94.7019 16.2474 93.4864 16.3522 93.0471 17.1171L91.7295 19.2337C91.4916 19.6656 90.9737 20.6593 90.4547 20.6593C89.8502 20.6593 90.1206 19.795 90.1532 18.9312C90.1741 18.3481 89.8069 17.6142 89.2023 17.6142C88.5112 17.6142 87.7773 18.672 87.2156 19.8821C86.8232 20.7282 85.8114 23.9642 84.5366 23.9642C83.7161 23.9642 83.6295 21.5883 83.5868 20.8538C83.544 20.1194 83.2842 19.2124 82.5504 19.2124C82.0533 19.2124 81.7299 19.4711 81.4701 19.7736C81.2114 20.0761 81.1686 20.3348 80.261 20.2055C79.0081 20.1622 76.9348 21.329 75.466 23.791C74.5819 25.2732 73.5177 28.3814 74.8614 29.4931C76.1143 30.5296 78.3598 28.1104 79.0082 27.3332C79.6554 26.5555 80.2172 25.9937 80.477 25.5623C80.7357 25.1299 80.9949 25.1732 81.1243 25.6056C81.2536 26.0375 81.9886 27.7223 82.9389 27.679C83.8898 27.6357 84.6665 27.4198 86.0926 24.914C86.3513 24.396 86.8264 24.3314 86.913 24.7633C86.9996 25.1951 87.0862 26.3401 87.9933 26.3401C89.5476 26.3401 91.3099 22.5563 91.7514 21.6743C92.14 20.8966 92.7659 21.1125 92.9824 21.6957C93.2913 22.5306 93.565 25.2165 95.2498 25.2165C96.9346 25.2165 98.079 23.4238 98.4242 22.862C98.8139 22.3013 98.6113 21.5845 98.0143 22.1067ZM79.6987 24.6986C79.3102 25.3464 78.4458 26.7719 77.5388 26.4694C77.0636 26.2102 77.6537 24.9578 77.9712 24.3527C78.4464 23.4457 79.8388 21.9801 80.477 22.3441C81.081 22.6899 80.0873 24.0502 79.6987 24.6986ZM71.3534 22.4344C71.3534 22.4344 67.6819 19.756 66.6449 18.5469C65.9485 17.7344 66.429 17.1214 66.8609 16.7761C69.4522 15.048 73.5128 12.3696 75.1116 8.22282C76.6515 4.22575 74.2473 0.749827 72.5192 0.188057C70.1513 -0.581104 65.1323 0.965771 62.6265 5.63098C61.0042 8.65257 60.2516 9.64836 60.0352 17.8558C59.9935 19.4101 59.9486 21.182 59.9486 23.126C59.9486 25.0701 59.7326 30.3398 59.5162 31.3329C58.6957 33.6655 61.1582 32.2833 62.2806 31.3768C63.4042 30.4692 63.3171 29.1088 63.3171 28.5257C63.3171 27.7907 63.3609 14.832 63.7495 11.9377C63.9916 10.1374 64.2685 6.79728 66.1681 3.90291C68.0694 1.00853 70.0129 2.17537 70.5319 2.65001C71.0498 3.12519 71.7848 4.33479 71.3951 6.79728C70.7917 10.6185 66.3841 14.7887 65.2605 16.0844C64.1381 17.3801 64.3973 18.5036 65.0457 19.4107C65.5059 20.0558 66.6439 21.3114 67.8102 22.4777C68.9765 23.644 68.8466 24.6809 68.6745 25.4587C68.0689 27.7907 61.7622 34.0979 61.7622 34.0979C60.4227 35.5235 61.8049 37.8561 62.2801 38.6333C62.7564 39.411 63.3604 39.1523 63.7489 38.5039C65.3044 35.6101 71.9997 28.6117 71.9997 28.6117C73.9458 26.1492 73.1243 23.7733 71.3534 22.4344Z" fill="#919FAB"/>
</svg>
