<svg width="100" height="40" viewBox="0 0 100 40" fill="none" xmlns="http://www.w3.org/2000/svg">
<path d="M78.982 39.9728C79.3221 39.2246 79.7302 38.5104 80.1156 37.7848C81.1737 35.7669 82.2356 33.7528 83.3012 31.7424C83.3342 31.6877 83.3516 31.625 83.3516 31.5611C83.3516 31.4971 83.3342 31.4344 83.3012 31.3797C80.2781 25.7189 77.255 20.0506 74.2319 14.3748L74.0619 14.1027C73.8692 13.6266 73.5971 13.1844 73.359 12.731C73.252 12.4608 73.0985 12.2114 72.9056 11.9941C72.9107 11.8883 72.8786 11.784 72.8149 11.6994L71.6812 9.62476C71.7832 9.55674 71.8739 9.62476 71.9646 9.62476H77.2928C77.3882 9.61117 77.4853 9.63079 77.5678 9.68034C77.6504 9.72988 77.7134 9.80632 77.7463 9.89684C80.4897 15.4064 83.2408 20.916 85.9993 26.4256L86.124 26.675C86.2261 26.675 86.2374 26.5276 86.2714 26.4596C89.0224 20.9349 91.7696 15.414 94.5131 9.89684C94.5451 9.81049 94.6046 9.73707 94.6824 9.68789C94.7603 9.63872 94.8522 9.61654 94.9439 9.62476H100C99.9976 9.73125 99.9619 9.83432 99.898 9.91951L84.7636 39.678C84.7133 39.7723 84.6715 39.871 84.6389 39.9728H78.982Z" fill="#919FAB"/>
<path d="M50.6745 24.4303C50.7468 23.8802 50.8682 23.3377 51.0373 22.8092C51.0472 22.7899 51.0524 22.7685 51.0524 22.7469C51.0524 22.7252 51.0472 22.7038 51.0373 22.6845C51.3382 21.9984 51.7606 21.3724 52.2843 20.8366C53.2638 19.8844 54.4572 19.1808 55.7647 18.7847C57.3922 18.2673 59.0807 17.9662 60.7868 17.8891C63.5642 17.7191 66.3303 17.8324 69.1078 17.7984C69.4932 17.7984 69.4366 17.7984 69.4479 17.447C69.5029 16.7477 69.4493 16.044 69.2892 15.3611C69.0579 14.7107 68.6783 14.1231 68.1805 13.6449C67.6826 13.1668 67.0802 12.8112 66.421 12.6063C65.2524 12.1697 64.0039 11.9881 62.7593 12.0735C61.7564 12.0857 60.7659 12.2977 59.8458 12.697C59.2848 12.9184 58.7856 13.2721 58.3908 13.7281C57.996 14.1841 57.7173 14.7288 57.5785 15.3157C57.5785 15.4404 57.4992 15.4631 57.3971 15.4631C55.742 15.4631 54.0868 15.4631 52.4317 15.4631C52.2276 15.4631 52.2617 15.3497 52.273 15.2137C52.3725 14.3915 52.639 13.5983 53.0562 12.8828C53.4734 12.1673 54.0324 11.5447 54.699 11.0532C55.9877 10.0716 57.4916 9.41096 59.0863 9.12595C61.5379 8.62787 64.056 8.54738 66.5344 8.88788C68.2153 9.0589 69.8335 9.61772 71.2618 10.5203C71.8805 10.9395 72.4377 11.4432 72.9169 12.0168C73.1098 12.2341 73.2633 12.4835 73.3704 12.7537C73.6084 13.2071 73.8805 13.6492 74.0732 14.1254C74.0732 14.2728 74.2206 14.6695 74.266 14.8963C74.4537 15.7372 74.545 16.5968 74.538 17.4583C74.538 20.6439 74.538 23.8408 74.538 27.0378C74.538 28.5228 74.538 29.9966 74.7194 31.4704C74.7194 31.6177 74.7194 31.6631 74.5494 31.6631H70.2075C70.0374 31.6631 70.0147 31.6064 70.0034 31.459C70.0034 30.4841 69.9014 29.4978 69.9014 28.4548L69.5953 28.8516C68.5218 30.1104 67.1328 31.0612 65.5708 31.6064C63.4531 32.3726 61.1935 32.6667 58.9502 32.468C57.3753 32.4166 55.8294 32.0302 54.4156 31.3343C53.4424 30.874 52.5961 30.1832 51.9501 29.3219C51.3042 28.4606 50.878 27.4548 50.7085 26.3916C50.6387 25.7402 50.6273 25.0838 50.6745 24.4303ZM66.6138 21.086C64.8906 21.086 63.2921 21.1427 61.705 21.3014C60.642 21.3776 59.5918 21.5793 58.5761 21.9023C57.786 22.1076 57.0802 22.5556 56.5582 23.1833C56.1709 23.7218 55.9496 24.3618 55.9214 25.0245C55.8932 25.6871 56.0594 26.3436 56.3995 26.913C56.6718 27.4226 57.0543 27.865 57.519 28.2082C57.9838 28.5513 58.5192 28.7866 59.0863 28.8969C60.9277 29.342 62.8553 29.2793 64.6639 28.7156C65.7474 28.4351 66.7374 27.8732 67.5338 27.0868C68.3301 26.3004 68.9044 25.3175 69.1985 24.2376C69.423 23.253 69.5069 22.2416 69.4479 21.2334C69.4479 21.0407 69.3232 21.086 69.2212 21.086H66.6138Z" fill="#919FAB"/>
<path d="M25.0765 18.3993C25.0765 19.1135 25.0765 19.805 25.0765 20.5192C25.0765 20.984 25.0765 21.4375 25.0765 21.9023H5.43022C5.21483 21.9023 5.15815 21.9023 5.15815 22.1744C5.17928 23.7414 5.73116 25.2549 6.72364 26.4677C7.71612 27.6805 9.09054 28.5209 10.6224 28.8516C12.6083 29.3782 14.7165 29.1854 16.5741 28.3075C17.8121 27.7277 18.7872 26.704 19.3062 25.4393C19.3215 25.3925 19.3523 25.3524 19.3936 25.3256C19.4348 25.2988 19.484 25.2869 19.5329 25.2919H24.4077C24.589 25.2919 24.6004 25.3486 24.5664 25.496C24.1708 27.3527 23.0951 28.9945 21.5508 30.0986C20.1558 31.1104 18.5456 31.7855 16.8462 32.0712C14.6715 32.4584 12.4504 32.5119 10.2596 32.2299C8.56438 32.0677 6.91269 31.5991 5.38488 30.8468C4.09722 30.1993 2.97444 29.2663 2.10213 28.1189C1.22983 26.9716 0.631042 25.6402 0.351434 24.2263C0.143542 23.2989 0.0258498 22.3535 0 21.4035V20.0431C0.0293816 18.3159 0.379185 16.6091 1.03163 15.0096C1.52869 13.8316 2.25899 12.7663 3.17857 11.8779C4.09816 10.9895 5.188 10.2963 6.3825 9.84016C7.92603 9.20887 9.55988 8.82623 11.2232 8.7065C13.1207 8.54154 15.0322 8.6677 16.8915 9.0806C19.2603 9.55637 21.3891 10.8433 22.9112 12.7196C24.0944 14.2024 24.8439 15.9838 25.0765 17.8665C25.0765 18.0365 25.0765 18.2746 25.0765 18.3993ZM12.6063 18.5353H19.6576C19.8504 18.5353 19.9297 18.5353 19.907 18.2972C19.8844 18.0592 19.907 17.8324 19.8504 17.5944C19.7654 16.6428 19.4413 15.7281 18.9081 14.9353C18.375 14.1425 17.6501 13.4973 16.8008 13.0597C15.5991 12.4005 14.2532 12.0483 12.8826 12.0345C11.5121 12.0206 10.1593 12.3456 8.94456 12.9804C7.92642 13.4209 7.05042 14.1352 6.41398 15.0438C5.77754 15.9525 5.4056 17.0198 5.33953 18.1272C5.33953 18.5467 5.33953 18.5467 5.72498 18.5467L12.6063 18.5353Z" fill="#919FAB"/>
<path d="M50.8219 17.3563C50.3939 15.3694 49.4066 13.5463 47.9764 12.102C46.5463 10.6578 44.7329 9.65273 42.7503 9.20531C40.5188 8.65586 38.1903 8.63257 35.9483 9.13729C34.2446 9.4652 32.6527 10.2222 31.323 11.3366C30.9216 11.6718 30.5602 12.0522 30.246 12.4702V0H25.1445C25.1445 0.0906927 25.1445 31.6858 25.1445 31.6858H25.3033C26.7883 31.6858 28.2848 31.6858 29.7812 31.6858C29.9966 31.6858 30.0419 31.6064 30.0533 31.425C30.0533 30.8242 30.1326 30.2233 30.1667 29.6225C30.1667 29.3164 30.1667 29.0103 30.2233 28.6589C31.0297 29.7082 32.0701 30.5545 33.2615 31.1303C36.2342 32.5728 39.6274 32.8948 42.8183 32.0372C44.3241 31.6874 45.7344 31.0104 46.9491 30.0543C48.1639 29.0982 49.1532 27.8864 49.847 26.5049C50.1826 25.8452 50.4632 25.1589 50.6859 24.453C50.7531 23.8956 50.8708 23.3454 51.0373 22.8092C51.0373 22.8092 51.0373 22.7072 51.0373 22.6845C51.0373 22.6618 51.0373 22.4578 51.0373 22.3444C51.2839 20.6832 51.2107 18.9901 50.8219 17.3563ZM45.0176 24.6684C44.3458 26.0885 43.2503 27.2653 41.8819 28.0368C40.5134 28.8083 38.9395 29.1366 37.3767 28.9763C35.6542 28.8651 34.0236 28.16 32.7627 26.9811C31.5196 25.7855 30.6998 24.2176 30.4274 22.5145C29.9811 20.3915 30.2731 18.1798 31.255 16.2453C31.7892 15.1319 32.6066 14.1782 33.6252 13.4799C34.6439 12.7816 35.8281 12.363 37.0593 12.2662C37.3994 12.2662 37.7395 12.2662 38.0796 12.2095C39.1303 12.1713 40.1773 12.3532 41.1535 12.7437C42.1297 13.1342 43.0134 13.7245 43.7479 14.4768C44.8201 15.6271 45.5229 17.0724 45.7658 18.626C46.1702 20.6683 45.908 22.7865 45.0176 24.6684Z" fill="#919FAB"/>
</svg>
