<svg width="100" height="38" viewBox="0 0 100 38" fill="none" xmlns="http://www.w3.org/2000/svg">
<path fill-rule="evenodd" clip-rule="evenodd" d="M49.0982 0.000111802C54.8855 -0.00636272 59.4327 0.267282 64.3581 1.10516C69.7356 2.01998 74.7507 3.25395 78.7893 5.56842C79.0877 5.73941 79.3157 5.85101 79.7031 6.09971C81.2773 7.1107 83.2369 8.73008 83.6138 10.9031C83.9184 12.66 83.097 14.091 82.211 15.1111C81.2912 16.1699 80.1631 16.9758 78.9592 17.6615C74.0482 20.4599 67.5731 21.9494 60.8513 22.7199C57.7276 23.0779 54.452 23.3363 50.6073 23.3363C46.8693 23.3363 43.5686 23.1853 40.3843 22.8687C33.9083 22.2248 27.1255 20.8672 22.0214 18.2777C20.7504 17.6332 19.5612 16.9293 18.4933 15.9825C17.4795 15.0837 16.513 13.969 16.2405 12.4333C15.7826 9.85342 17.6008 7.97694 19.1097 6.82237C20.7269 5.5848 22.8079 4.55096 24.8056 3.80448C28.9579 2.25249 33.9791 1.22133 38.9604 0.616336C42.2803 0.213199 45.2261 0.00430114 49.0982 0.000111802ZM49.2472 2.31667C44.7546 2.31667 40.488 3.13227 36.7501 4.50583C34.9196 5.17842 33.2927 6.00449 31.8616 7.20496C30.6129 8.25268 29.1361 9.93263 29.4813 12.242C29.7791 14.2338 31.3628 15.6546 32.7118 16.599C34.2178 17.653 36.0243 18.4499 37.8554 19.0429C41.8111 20.3243 46.2426 20.8762 50.8198 20.8282C55.1683 20.7826 59.7421 20.0285 63.3379 18.6181C65.111 17.9224 66.8122 17.0708 68.2049 15.8976C69.4874 14.8173 70.8488 13.0724 70.5004 10.9031C70.1882 8.95994 68.7064 7.53915 67.2698 6.54606C65.69 5.45378 64.0151 4.73492 62.1266 4.10193C59.2346 3.13283 55.9486 2.55794 52.7963 2.40179C51.8075 2.35267 50.5066 2.25877 49.2895 2.31667C49.2754 2.31743 49.2612 2.31667 49.2472 2.31667Z" fill="#919FAB"/>
<path fill-rule="evenodd" clip-rule="evenodd" d="M4.53 27.7144C6.44817 27.7103 8.15478 27.6927 9.71572 28.0121C10.239 28.119 10.8271 28.3214 11.0122 28.7131C11.1858 29.0809 11.1184 29.6907 11.1184 30.5836C11.1184 32.2409 11.1184 33.7609 11.1184 35.493C11.1184 35.8072 11.1582 36.2036 11.0759 36.4284C10.8202 37.1252 9.42932 37.2899 8.71674 37.3635C6.79798 37.5618 4.51533 37.5487 2.55336 37.3635C1.78403 37.2907 0.407807 37.1256 0.109216 36.4706C-0.0684539 36.0812 0.0240939 35.1615 0.0240939 34.5793C0.0240939 33.1644 0.0240939 32.1291 0.0240939 30.6688C0.0240939 29.9789 -0.0793083 29.0678 0.194145 28.6496C0.471218 28.2258 1.3807 27.9905 2.12832 27.8844C2.96239 27.766 3.59861 27.7163 4.53 27.7144ZM4.35994 28.9259C4.28301 29.0825 4.31729 29.5288 4.31729 29.7973C4.31729 31.4377 4.31729 32.8161 4.31729 34.4305C4.31729 34.9792 4.20913 35.9312 4.38108 36.237C4.55913 36.5532 5.05119 36.5495 5.55011 36.5558C5.94506 36.5606 6.54739 36.5844 6.74028 36.2582C6.9149 35.9626 6.80408 35.0812 6.80408 34.4943C6.80408 32.9908 6.80408 32.2446 6.80408 30.7961C6.80408 30.3983 6.90367 29.2744 6.78275 28.9684C6.62851 28.5778 5.60648 28.6038 5.25248 28.6283C4.99844 28.6459 4.49191 28.6572 4.35994 28.9259Z" fill="#919FAB"/>
<path fill-rule="evenodd" clip-rule="evenodd" d="M21.1287 27.8206C22.851 27.8202 24.7555 27.8208 26.5483 27.8206C27.7926 30.9829 29.0416 34.1405 30.2677 37.3209C28.6383 37.3209 27.0089 37.3209 25.3793 37.3209C25.1106 36.5411 24.8653 35.7383 24.5931 34.9617C23.6774 34.9277 22.6179 34.9254 21.7026 34.9617C21.4409 35.7132 21.2411 36.5263 21.0227 37.3209C19.9102 37.3209 18.798 37.3209 17.6857 37.3209C18.5135 34.9585 19.3887 32.5928 20.236 30.2224C20.5205 29.4266 20.8483 28.5232 21.1287 27.8206ZM21.9152 33.8564C22.6597 33.8215 23.551 33.8215 24.2955 33.8564C23.872 32.6082 23.464 31.3443 22.999 30.1374C22.6579 31.3973 22.2584 32.5989 21.9152 33.8564Z" fill="#919FAB"/>
<path fill-rule="evenodd" clip-rule="evenodd" d="M42.1059 31.6463C43.1173 30.6011 44.1748 29.4257 45.2301 28.267C45.3578 28.1266 45.585 27.8514 45.6977 27.8206C45.951 27.7512 46.4022 27.8206 46.6967 27.8206C47.6676 27.8206 48.696 27.8382 49.6507 27.7994C49.6919 27.9138 49.5347 27.9737 49.4807 28.0332C48.3787 29.2467 47.1943 30.5346 46.0589 31.7313C47.1838 33.5891 48.3869 35.4819 49.4596 37.3209C47.823 37.3209 46.1864 37.3209 44.55 37.3209C43.6828 35.9918 42.9482 34.5301 42.1059 33.1767C42.1059 34.558 42.1059 35.9394 42.1059 37.3209C40.5615 37.3209 39.0171 37.3209 37.4727 37.3209C37.4583 34.253 37.501 30.9453 37.4513 27.8419C38.9252 27.7926 40.6036 27.8345 42.0419 27.8206C42.1585 27.8084 42.1059 28.0775 42.1059 28.2245C42.1059 29.3048 42.1059 30.5531 42.1059 31.6463Z" fill="#919FAB"/>
<path fill-rule="evenodd" clip-rule="evenodd" d="M56.7494 27.8206C58.2866 27.8206 59.8242 27.8206 61.3615 27.8206C61.3613 30.5483 61.3615 33.389 61.3615 36.0457C62.8917 36.0597 64.4786 36.0174 65.9734 36.0669C65.9734 36.485 65.9734 36.9029 65.9734 37.3209C62.8844 37.3209 59.7957 37.3209 56.7069 37.3209C56.7561 34.4075 56.7145 30.9593 56.7282 27.8631C56.6855 27.8442 56.7375 27.7699 56.7494 27.8206Z" fill="#919FAB"/>
<path fill-rule="evenodd" clip-rule="evenodd" d="M72.8806 27.8206C75.9058 27.8206 78.9306 27.8206 81.9558 27.8206C81.9558 28.2245 81.9558 28.6283 81.9558 29.0322C80.4822 29.0322 79.0088 29.0322 77.5352 29.0322C77.4855 29.9604 77.528 30.9802 77.514 31.9439C78.6475 31.9579 79.8376 31.9156 80.9358 31.9651C80.9438 32.375 80.9204 32.7672 80.9571 33.0704C79.8163 33.0704 78.6758 33.0704 77.5352 33.0704C77.5352 34.0762 77.5352 35.0822 77.5352 36.0884C78.9591 36.1377 80.4752 36.0954 81.9348 36.1096C81.9348 36.5133 81.9348 36.9171 81.9348 37.3209C78.9096 37.3209 75.8846 37.3209 72.8596 37.3209C72.8596 34.1684 72.8596 31.0157 72.8596 27.8631C72.8504 27.8224 72.874 27.7863 72.8806 27.8206Z" fill="#919FAB"/>
<path fill-rule="evenodd" clip-rule="evenodd" d="M99.9787 27.7994C99.9969 27.7955 99.9986 27.8078 100 27.8206C98.7471 29.8053 97.3387 31.8189 96.0256 33.8141C96.0394 34.9556 95.9979 36.2643 96.047 37.2997C94.5307 37.3492 92.9225 37.3067 91.3711 37.3209C91.37 36.4897 91.3711 35.6118 91.3711 34.7068C91.3711 34.417 91.425 34.0875 91.3711 33.8354C91.324 33.6142 91.0266 33.3126 90.861 33.0704C89.6682 31.323 88.4817 29.5413 87.3544 27.8206C88.9908 27.8206 90.6272 27.8206 92.2636 27.8206C92.9877 28.9598 93.645 30.1657 94.3254 31.3487C95.0383 30.1914 95.6999 28.9826 96.4081 27.8206C97.5914 27.8066 98.831 27.8489 99.9787 27.7994Z" fill="#919FAB"/>
</svg>
