<svg width="17" height="17" viewBox="0 0 17 17" fill="none" xmlns="http://www.w3.org/2000/svg">
<g clip-path="url(#clip0_308_260)">
<path d="M8.36137 10.6984C9.8123 10.6984 11.2183 10.1953 12.3399 9.27485C13.4615 8.35438 14.2292 7.07349 14.5123 5.65043C14.7953 4.22737 14.5762 2.7502 13.8922 1.47059C13.2083 0.190986 12.1018 -0.811873 10.7613 -1.36711C9.42076 -1.92235 7.92922 -1.99561 6.54076 -1.57442C5.15231 -1.15323 3.95285 -0.263635 3.14676 0.942779C2.34067 2.14919 1.97783 3.59778 2.12006 5.04173C2.26228 6.48568 2.90078 7.83564 3.92675 8.8616" stroke="black" stroke-width="1.39366" stroke-linecap="round"/>
<path d="M11.1469 3.03333L8.63971 6.04223C8.18328 6.58994 7.95472 6.86449 7.64742 6.87843C7.34012 6.89236 7.08787 6.63942 6.58336 6.13491L5.57227 5.12381" stroke="black" stroke-width="1.39366" stroke-linecap="round"/>
</g>
<defs>
<clipPath id="clip0_308_260">
<rect width="16.7239" height="16.7239" fill="white"/>
</clipPath>
</defs>
</svg>
