<svg width="18" height="13" viewBox="0 0 18 13" fill="none" xmlns="http://www.w3.org/2000/svg">
<path d="M3.38169 5.28665e-07C3.24373 -0.000171923 3.10902 0.0418498 2.99563 0.120428C2.88223 0.199007 2.79558 0.310384 2.74729 0.439618L1.84101 2.70534H8.11603V5.28665e-07H3.38169ZM9.4687 5.28665e-07V2.70534H15.7437L14.8374 0.439618C14.7892 0.3106 14.7028 0.199374 14.5897 0.120814C14.4765 0.0422538 14.3421 0.000103799 14.2044 5.28665e-07H9.4687ZM1.29994 4.05801L0.0541309 7.17455C0.0103483 7.2773 -0.00730623 7.3893 0.00274374 7.50053C0.0127937 7.61177 0.0502354 7.71879 0.111725 7.81203C0.173215 7.90527 0.256839 7.98183 0.355129 8.03487C0.453419 8.08791 0.563316 8.11579 0.675006 8.11601H8.11603V4.05801H1.29994ZM9.4687 4.05801V8.11601H16.9084C17.0202 8.11601 17.1302 8.0883 17.2287 8.03535C17.3272 7.9824 17.411 7.90586 17.4726 7.81259C17.5343 7.71932 17.5718 7.61222 17.582 7.50087C17.5921 7.38953 17.5744 7.27741 17.5306 7.17455L16.2848 4.05801H9.4687ZM6.76337 9.46868V10.8213H2.02903C1.84965 10.8212 1.67755 10.8923 1.55059 11.019C1.42362 11.1457 1.3522 11.3176 1.35202 11.497C1.35184 11.6764 1.42292 11.8485 1.54963 11.9754C1.67634 12.1024 1.8483 12.1738 2.02767 12.174H15.5557C15.7351 12.1742 15.9072 12.1031 16.0341 11.9764C16.1611 11.8497 16.2325 11.6777 16.2327 11.4984C16.2329 11.319 16.1618 11.1469 16.0351 11.0199C15.9084 10.893 15.7364 10.8215 15.5571 10.8213H10.8214V9.46868H6.76337Z" fill="#155DFC"/>
</svg>
